<svg width="30" height="30" viewBox="0 0 30 30" fill="none" xmlns="http://www.w3.org/2000/svg">
<path opacity="0.4" d="M22.55 16.9375C22.025 17.45 21.725 18.1875 21.8 18.975C21.9125 20.325 23.15 21.3125 24.5 21.3125H26.875V22.8C26.875 25.3875 24.7625 27.5 22.175 27.5H7.825C5.2375 27.5 3.125 25.3875 3.125 22.8V14.3875C3.125 11.8 5.2375 9.6875 7.825 9.6875H22.175C24.7625 9.6875 26.875 11.8 26.875 14.3875V16.1875H24.35C23.65 16.1875 23.0125 16.4625 22.55 16.9375Z" fill="white"/>
<path d="M18.5625 4.94848V9.69848H7.825C5.2375 9.69848 3.125 11.811 3.125 14.3985V9.81098C3.125 8.32348 4.0375 6.99848 5.425 6.47348L15.35 2.72348C16.9 2.14848 18.5625 3.28598 18.5625 4.94848ZM28.1987 17.471V20.046C28.1987 20.7335 27.6487 21.296 26.9487 21.321H24.4987C23.1487 21.321 21.9112 20.3335 21.7987 18.9835C21.7237 18.196 22.0237 17.4585 22.5487 16.946C23.0112 16.471 23.6487 16.196 24.3487 16.196H26.9487C27.6487 16.221 28.1987 16.7835 28.1987 17.471ZM17.5 15.946H8.75C8.2375 15.946 7.8125 15.521 7.8125 15.0085C7.8125 14.496 8.2375 14.071 8.75 14.071H17.5C18.0125 14.071 18.4375 14.496 18.4375 15.0085C18.4375 15.521 18.0125 15.946 17.5 15.946Z" fill="white"/>
</svg>
