<svg width="40" height="30" viewBox="0 0 40 30" fill="none" xmlns="http://www.w3.org/2000/svg">
<path opacity="0.5" d="M17.3342 2.268L16.3302 1.558C14.8974 0.544194 13.1854 -0.00015732 11.4302 3.4105e-08H10.2062C9.39616 3.4105e-08 8.58016 0.0499997 7.81816 0.32C3.05216 2.012 -0.225837 8.19 0.0121626 22.206C0.0601626 25.03 0.720162 28.15 3.26816 29.368C4.13735 29.7859 5.08974 30.0019 6.05416 30C7.13816 30.0178 8.20307 29.7136 9.11416 29.126C9.93416 28.59 10.6542 27.894 11.3742 27.198C12.2622 26.338 13.1502 25.478 14.2222 24.922C15.3901 24.3163 16.6865 24.0001 18.0022 24H22.0002C23.3162 24 24.6122 24.316 25.7802 24.92C26.8522 25.478 27.7402 26.338 28.6302 27.198C29.3502 27.894 30.0702 28.59 30.8862 29.126C31.6662 29.638 32.6762 30 33.9482 30C34.9126 30.0019 35.865 29.7859 36.7342 29.368C39.2822 28.15 39.9422 25.028 39.9902 22.206C40.2282 8.19 36.9502 2.012 32.1842 0.322C31.4202 0.0499996 30.6002 3.4105e-08 29.7942 3.4105e-08H28.5702C26.8147 0.000295752 25.1027 0.545365 23.6702 1.56L22.6662 2.268C21.8866 2.81954 20.9551 3.11572 20.0002 3.11572C19.0452 3.11572 18.1137 2.81954 17.3342 2.268Z" fill="white"/>
<path d="M29.5 8C29.8978 8 30.2794 8.15804 30.5607 8.43934C30.842 8.72065 31 9.10218 31 9.5C31 9.89782 30.842 10.2794 30.5607 10.5607C30.2794 10.842 29.8978 11 29.5 11C29.1022 11 28.7206 10.842 28.4393 10.5607C28.158 10.2794 28 9.89782 28 9.5C28 9.10218 28.158 8.72065 28.4393 8.43934C28.7206 8.15804 29.1022 8 29.5 8ZM11 8.5C11.3978 8.5 11.7794 8.65804 12.0607 8.93934C12.342 9.22065 12.5 9.60218 12.5 10V11.5H14C14.3978 11.5 14.7794 11.658 15.0607 11.9393C15.342 12.2206 15.5 12.6022 15.5 13C15.5 13.3978 15.342 13.7794 15.0607 14.0607C14.7794 14.342 14.3978 14.5 14 14.5H12.5V16C12.5 16.3978 12.342 16.7794 12.0607 17.0607C11.7794 17.342 11.3978 17.5 11 17.5C10.6022 17.5 10.2206 17.342 9.93934 17.0607C9.65804 16.7794 9.5 16.3978 9.5 16V14.5H8C7.60218 14.5 7.22064 14.342 6.93934 14.0607C6.65804 13.7794 6.5 13.3978 6.5 13C6.5 12.6022 6.65804 12.2206 6.93934 11.9393C7.22064 11.658 7.60218 11.5 8 11.5H9.5V10C9.5 9.60218 9.65804 9.22065 9.93934 8.93934C10.2206 8.65804 10.6022 8.5 11 8.5ZM34 12.5C34 12.8978 33.842 13.2794 33.5607 13.5607C33.2794 13.842 32.8978 14 32.5 14C32.1022 14 31.7206 13.842 31.4393 13.5607C31.158 13.2794 31 12.8978 31 12.5C31 12.1022 31.158 11.7206 31.4393 11.4393C31.7206 11.158 32.1022 11 32.5 11C32.8978 11 33.2794 11.158 33.5607 11.4393C33.842 11.7206 34 12.1022 34 12.5ZM26.5 14C26.8978 14 27.2794 13.842 27.5607 13.5607C27.842 13.2794 28 12.8978 28 12.5C28 12.1022 27.842 11.7206 27.5607 11.4393C27.2794 11.158 26.8978 11 26.5 11C26.1022 11 25.7206 11.158 25.4393 11.4393C25.158 11.7206 25 12.1022 25 12.5C25 12.8978 25.158 13.2794 25.4393 13.5607C25.7206 13.842 26.1022 14 26.5 14ZM31 15.5C31 15.1022 30.842 14.7206 30.5607 14.4393C30.2794 14.158 29.8978 14 29.5 14C29.1022 14 28.7206 14.158 28.4393 14.4393C28.158 14.7206 28 15.1022 28 15.5C28 15.8978 28.158 16.2794 28.4393 16.5607C28.7206 16.842 29.1022 17 29.5 17C29.8978 17 30.2794 16.842 30.5607 16.5607C30.842 16.2794 31 15.8978 31 15.5Z" fill="white"/>
</svg>
