<svg width="124" height="24" viewBox="0 0 124 24" fill="none" xmlns="http://www.w3.org/2000/svg">
<ellipse cx="13.3333" cy="12" rx="13.3333" ry="12" fill="url(#paint0_linear_2653_851)" fill-opacity="0.7"/>
<ellipse cx="26.6668" cy="12" rx="13.3333" ry="12" fill="url(#paint1_linear_2653_851)" fill-opacity="0.7"/>
<path d="M52.404 17.18C51.844 17.18 51.318 17.082 50.826 16.886C50.338 16.686 49.908 16.394 49.536 16.01C49.168 15.626 48.88 15.156 48.672 14.6C48.464 14.04 48.36 13.4 48.36 12.68C48.36 11.736 48.536 10.93 48.888 10.262C49.24 9.59 49.722 9.076 50.334 8.72C50.946 8.36 51.636 8.18 52.404 8.18C53.468 8.18 54.31 8.428 54.93 8.924C55.554 9.416 55.976 10.108 56.196 11L54.72 11.234C54.556 10.722 54.288 10.314 53.916 10.01C53.544 9.702 53.07 9.548 52.494 9.548C51.914 9.54 51.432 9.666 51.048 9.926C50.664 10.186 50.374 10.552 50.178 11.024C49.986 11.496 49.89 12.048 49.89 12.68C49.89 13.312 49.986 13.862 50.178 14.33C50.37 14.794 50.658 15.156 51.042 15.416C51.43 15.676 51.914 15.81 52.494 15.818C52.93 15.822 53.312 15.744 53.64 15.584C53.968 15.42 54.236 15.174 54.444 14.846C54.652 14.514 54.792 14.1 54.864 13.604H53.34V12.47H56.4C56.408 12.534 56.414 12.628 56.418 12.752C56.422 12.876 56.424 12.95 56.424 12.974C56.424 13.79 56.262 14.516 55.938 15.152C55.618 15.784 55.158 16.28 54.558 16.64C53.958 17 53.24 17.18 52.404 17.18ZM59.4411 17.18C58.9731 17.18 58.5771 17.092 58.2531 16.916C57.9291 16.736 57.6831 16.498 57.5151 16.202C57.3511 15.906 57.2691 15.58 57.2691 15.224C57.2691 14.912 57.3211 14.632 57.4251 14.384C57.5291 14.132 57.6891 13.916 57.9051 13.736C58.1211 13.552 58.4011 13.402 58.7451 13.286C59.0051 13.202 59.3091 13.126 59.6571 13.058C60.0091 12.99 60.3891 12.928 60.7971 12.872C61.2091 12.812 61.6391 12.748 62.0871 12.68L61.5711 12.974C61.5751 12.526 61.4751 12.196 61.2711 11.984C61.0671 11.772 60.7231 11.666 60.2391 11.666C59.9471 11.666 59.6651 11.734 59.3931 11.87C59.1211 12.006 58.9311 12.24 58.8231 12.572L57.5031 12.158C57.6631 11.61 57.9671 11.17 58.4151 10.838C58.8671 10.506 59.4751 10.34 60.2391 10.34C60.8151 10.34 61.3211 10.434 61.7571 10.622C62.1971 10.81 62.5231 11.118 62.7351 11.546C62.8511 11.774 62.9211 12.008 62.9451 12.248C62.9691 12.484 62.9811 12.742 62.9811 13.022V17H61.7151V15.596L61.9251 15.824C61.6331 16.292 61.2911 16.636 60.8991 16.856C60.5111 17.072 60.0251 17.18 59.4411 17.18ZM59.7291 16.028C60.0571 16.028 60.3371 15.97 60.5691 15.854C60.8011 15.738 60.9851 15.596 61.1211 15.428C61.2611 15.26 61.3551 15.102 61.4031 14.954C61.4791 14.77 61.5211 14.56 61.5291 14.324C61.5411 14.084 61.5471 13.89 61.5471 13.742L61.9911 13.874C61.5551 13.942 61.1811 14.002 60.8691 14.054C60.5571 14.106 60.2891 14.156 60.0651 14.204C59.8411 14.248 59.6431 14.298 59.4711 14.354C59.3031 14.414 59.1611 14.484 59.0451 14.564C58.9291 14.644 58.8391 14.736 58.7751 14.84C58.7151 14.944 58.6851 15.066 58.6851 15.206C58.6851 15.366 58.7251 15.508 58.8051 15.632C58.8851 15.752 59.0011 15.848 59.1531 15.92C59.3091 15.992 59.5011 16.028 59.7291 16.028ZM72.3251 17V13.064C72.3251 12.62 72.2151 12.274 71.9951 12.026C71.7751 11.774 71.4771 11.648 71.1011 11.648C70.8691 11.648 70.6611 11.702 70.4771 11.81C70.2931 11.914 70.1471 12.07 70.0391 12.278C69.9311 12.482 69.8771 12.726 69.8771 13.01L69.2351 12.632C69.2311 12.184 69.3311 11.79 69.5351 11.45C69.7431 11.106 70.0231 10.838 70.3751 10.646C70.7271 10.454 71.1191 10.358 71.5511 10.358C72.2671 10.358 72.8151 10.574 73.1951 11.006C73.5791 11.434 73.7711 11.998 73.7711 12.698V17H72.3251ZM64.5311 17V10.52H65.8091V12.53H65.9891V17H64.5311ZM68.4371 17V13.082C68.4371 12.63 68.3271 12.278 68.1071 12.026C67.8871 11.774 67.5871 11.648 67.2071 11.648C66.8391 11.648 66.5431 11.774 66.3191 12.026C66.0991 12.278 65.9891 12.606 65.9891 13.01L65.3411 12.578C65.3411 12.158 65.4451 11.78 65.6531 11.444C65.8611 11.108 66.1411 10.844 66.4931 10.652C66.8491 10.456 67.2471 10.358 67.6871 10.358C68.1711 10.358 68.5751 10.462 68.8991 10.67C69.2271 10.874 69.4711 11.154 69.6311 11.51C69.7951 11.862 69.8771 12.26 69.8771 12.704V17H68.4371ZM78.1766 17.18C77.5206 17.18 76.9446 17.038 76.4486 16.754C75.9526 16.47 75.5646 16.076 75.2846 15.572C75.0086 15.068 74.8706 14.488 74.8706 13.832C74.8706 13.124 75.0066 12.51 75.2786 11.99C75.5506 11.466 75.9286 11.06 76.4126 10.772C76.8966 10.484 77.4566 10.34 78.0926 10.34C78.7646 10.34 79.3346 10.498 79.8026 10.814C80.2746 11.126 80.6246 11.568 80.8526 12.14C81.0806 12.712 81.1666 13.386 81.1106 14.162H79.6766V13.634C79.6726 12.93 79.5486 12.416 79.3046 12.092C79.0606 11.768 78.6766 11.606 78.1526 11.606C77.5606 11.606 77.1206 11.79 76.8326 12.158C76.5446 12.522 76.4006 13.056 76.4006 13.76C76.4006 14.416 76.5446 14.924 76.8326 15.284C77.1206 15.644 77.5406 15.824 78.0926 15.824C78.4486 15.824 78.7546 15.746 79.0106 15.59C79.2706 15.43 79.4706 15.2 79.6106 14.9L81.0386 15.332C80.7906 15.916 80.4066 16.37 79.8866 16.694C79.3706 17.018 78.8006 17.18 78.1766 17.18ZM75.9446 14.162V13.07H80.4026V14.162H75.9446ZM82.4494 17V8.36H83.7514L86.7394 14.48L89.7274 8.36H91.0294V17H89.6794V11.462L87.0274 17H86.4514L83.8054 11.462V17H82.4494ZM94.527 17.18C94.059 17.18 93.663 17.092 93.339 16.916C93.015 16.736 92.769 16.498 92.601 16.202C92.437 15.906 92.355 15.58 92.355 15.224C92.355 14.912 92.407 14.632 92.511 14.384C92.615 14.132 92.775 13.916 92.991 13.736C93.207 13.552 93.487 13.402 93.831 13.286C94.091 13.202 94.395 13.126 94.743 13.058C95.095 12.99 95.475 12.928 95.883 12.872C96.295 12.812 96.725 12.748 97.173 12.68L96.657 12.974C96.661 12.526 96.561 12.196 96.357 11.984C96.153 11.772 95.809 11.666 95.325 11.666C95.033 11.666 94.751 11.734 94.479 11.87C94.207 12.006 94.017 12.24 93.909 12.572L92.589 12.158C92.749 11.61 93.053 11.17 93.501 10.838C93.953 10.506 94.561 10.34 95.325 10.34C95.901 10.34 96.407 10.434 96.843 10.622C97.283 10.81 97.609 11.118 97.821 11.546C97.937 11.774 98.007 12.008 98.031 12.248C98.055 12.484 98.067 12.742 98.067 13.022V17H96.801V15.596L97.011 15.824C96.719 16.292 96.377 16.636 95.985 16.856C95.597 17.072 95.111 17.18 94.527 17.18ZM94.815 16.028C95.143 16.028 95.423 15.97 95.655 15.854C95.887 15.738 96.071 15.596 96.207 15.428C96.347 15.26 96.441 15.102 96.489 14.954C96.565 14.77 96.607 14.56 96.615 14.324C96.627 14.084 96.633 13.89 96.633 13.742L97.077 13.874C96.641 13.942 96.267 14.002 95.955 14.054C95.643 14.106 95.375 14.156 95.151 14.204C94.927 14.248 94.729 14.298 94.557 14.354C94.389 14.414 94.247 14.484 94.131 14.564C94.015 14.644 93.925 14.736 93.861 14.84C93.801 14.944 93.771 15.066 93.771 15.206C93.771 15.366 93.811 15.508 93.891 15.632C93.971 15.752 94.087 15.848 94.239 15.92C94.395 15.992 94.587 16.028 94.815 16.028ZM104.111 17V13.88C104.111 13.676 104.097 13.45 104.069 13.202C104.041 12.954 103.975 12.716 103.871 12.488C103.771 12.256 103.619 12.066 103.415 11.918C103.215 11.77 102.943 11.696 102.599 11.696C102.415 11.696 102.233 11.726 102.053 11.786C101.873 11.846 101.709 11.95 101.561 12.098C101.417 12.242 101.301 12.442 101.213 12.698C101.125 12.95 101.081 13.274 101.081 13.67L100.223 13.304C100.223 12.752 100.329 12.252 100.541 11.804C100.757 11.356 101.073 11 101.489 10.736C101.905 10.468 102.417 10.334 103.025 10.334C103.505 10.334 103.901 10.414 104.213 10.574C104.525 10.734 104.773 10.938 104.957 11.186C105.141 11.434 105.277 11.698 105.365 11.978C105.453 12.258 105.509 12.524 105.533 12.776C105.561 13.024 105.575 13.226 105.575 13.382V17H104.111ZM99.6171 17V10.52H100.907V12.53H101.081V17H99.6171ZM107.261 9.536V8.21H108.707V9.536H107.261ZM107.261 17V10.52H108.707V17H107.261ZM112.316 17.18C111.848 17.18 111.452 17.092 111.128 16.916C110.804 16.736 110.558 16.498 110.39 16.202C110.226 15.906 110.144 15.58 110.144 15.224C110.144 14.912 110.196 14.632 110.3 14.384C110.404 14.132 110.564 13.916 110.78 13.736C110.996 13.552 111.276 13.402 111.62 13.286C111.88 13.202 112.184 13.126 112.532 13.058C112.884 12.99 113.264 12.928 113.672 12.872C114.084 12.812 114.514 12.748 114.962 12.68L114.446 12.974C114.45 12.526 114.35 12.196 114.146 11.984C113.942 11.772 113.598 11.666 113.114 11.666C112.822 11.666 112.54 11.734 112.268 11.87C111.996 12.006 111.806 12.24 111.698 12.572L110.378 12.158C110.538 11.61 110.842 11.17 111.29 10.838C111.742 10.506 112.35 10.34 113.114 10.34C113.69 10.34 114.196 10.434 114.632 10.622C115.072 10.81 115.398 11.118 115.61 11.546C115.726 11.774 115.796 12.008 115.82 12.248C115.844 12.484 115.856 12.742 115.856 13.022V17H114.59V15.596L114.8 15.824C114.508 16.292 114.166 16.636 113.774 16.856C113.386 17.072 112.9 17.18 112.316 17.18ZM112.604 16.028C112.932 16.028 113.212 15.97 113.444 15.854C113.676 15.738 113.86 15.596 113.996 15.428C114.136 15.26 114.23 15.102 114.278 14.954C114.354 14.77 114.396 14.56 114.404 14.324C114.416 14.084 114.422 13.89 114.422 13.742L114.866 13.874C114.43 13.942 114.056 14.002 113.744 14.054C113.432 14.106 113.164 14.156 112.94 14.204C112.716 14.248 112.518 14.298 112.346 14.354C112.178 14.414 112.036 14.484 111.92 14.564C111.804 14.644 111.714 14.736 111.65 14.84C111.59 14.944 111.56 15.066 111.56 15.206C111.56 15.366 111.6 15.508 111.68 15.632C111.76 15.752 111.876 15.848 112.028 15.92C112.184 15.992 112.376 16.028 112.604 16.028ZM120.232 17.18C119.564 17.18 118.994 17.032 118.522 16.736C118.05 16.436 117.688 16.028 117.436 15.512C117.188 14.996 117.062 14.412 117.058 13.76C117.062 13.096 117.192 12.508 117.448 11.996C117.708 11.48 118.076 11.076 118.552 10.784C119.028 10.488 119.594 10.34 120.25 10.34C120.986 10.34 121.608 10.526 122.116 10.898C122.628 11.266 122.962 11.77 123.118 12.41L121.678 12.8C121.566 12.452 121.38 12.182 121.12 11.99C120.86 11.794 120.564 11.696 120.232 11.696C119.856 11.696 119.546 11.786 119.302 11.966C119.058 12.142 118.878 12.386 118.762 12.698C118.646 13.01 118.588 13.364 118.588 13.76C118.588 14.376 118.726 14.874 119.002 15.254C119.278 15.634 119.688 15.824 120.232 15.824C120.616 15.824 120.918 15.736 121.138 15.56C121.362 15.384 121.53 15.13 121.642 14.798L123.118 15.128C122.918 15.788 122.568 16.296 122.068 16.652C121.568 17.004 120.956 17.18 120.232 17.18Z" fill="white"/>
<defs>
<linearGradient id="paint0_linear_2653_851" x1="13.3333" y1="0" x2="13.3333" y2="24" gradientUnits="userSpaceOnUse">
<stop stop-color="#A85BAE"/>
<stop offset="1" stop-color="#A85BAE" stop-opacity="0"/>
</linearGradient>
<linearGradient id="paint1_linear_2653_851" x1="26.6668" y1="0" x2="26.6668" y2="24" gradientUnits="userSpaceOnUse">
<stop stop-color="#A85BAE"/>
<stop offset="1" stop-color="#A85BAE" stop-opacity="0"/>
</linearGradient>
</defs>
</svg>
