<svg width="167" height="40" viewBox="0 0 167 40" fill="none" xmlns="http://www.w3.org/2000/svg">
<circle cx="20" cy="20" r="20" fill="white" fill-opacity="0.1"/>
<circle cx="40" cy="20" r="20" fill="white" fill-opacity="0.1"/>
<path d="M72.928 26.224C72.16 26.224 71.4613 26.0533 70.832 25.712C70.2133 25.36 69.7173 24.8533 69.344 24.192C68.9813 23.52 68.8 22.704 68.8 21.744V19.056C68.8 17.616 69.2053 16.512 70.016 15.744C70.8267 14.9653 71.9253 14.576 73.312 14.576C74.688 14.576 75.7493 14.944 76.496 15.68C77.2533 16.4053 77.632 17.392 77.632 18.64V18.704H75.552V18.576C75.552 18.1813 75.4667 17.824 75.296 17.504C75.136 17.184 74.8907 16.9333 74.56 16.752C74.2293 16.56 73.8133 16.464 73.312 16.464C72.5653 16.464 71.9787 16.6933 71.552 17.152C71.1253 17.6107 70.912 18.2347 70.912 19.024V21.776C70.912 22.5547 71.1253 23.184 71.552 23.664C71.9787 24.1333 72.576 24.368 73.344 24.368C74.112 24.368 74.672 24.1653 75.024 23.76C75.376 23.3547 75.552 22.8427 75.552 22.224V22.064H72.896V20.272H77.632V26H75.68V24.928H75.392C75.3173 25.1093 75.1947 25.3013 75.024 25.504C74.864 25.7067 74.6187 25.8773 74.288 26.016C73.9573 26.1547 73.504 26.224 72.928 26.224ZM82.1778 26.224C81.6124 26.224 81.1058 26.128 80.6578 25.936C80.2098 25.7333 79.8524 25.4453 79.5858 25.072C79.3298 24.688 79.2018 24.224 79.2018 23.68C79.2018 23.136 79.3298 22.6827 79.5858 22.32C79.8524 21.9467 80.2151 21.6693 80.6738 21.488C81.1431 21.296 81.6764 21.2 82.2738 21.2H84.4498V20.752C84.4498 20.3787 84.3324 20.0747 84.0978 19.84C83.8631 19.5947 83.4898 19.472 82.9778 19.472C82.4764 19.472 82.1031 19.5893 81.8578 19.824C81.6124 20.048 81.4524 20.3413 81.3778 20.704L79.5218 20.08C79.6498 19.6747 79.8524 19.3067 80.1298 18.976C80.4178 18.6347 80.7964 18.3627 81.2658 18.16C81.7458 17.9467 82.3271 17.84 83.0098 17.84C84.0551 17.84 84.8818 18.1013 85.4898 18.624C86.0978 19.1467 86.4018 19.904 86.4018 20.896V23.856C86.4018 24.176 86.5511 24.336 86.8498 24.336H87.4898V26H86.1458C85.7511 26 85.4258 25.904 85.1698 25.712C84.9138 25.52 84.7858 25.264 84.7858 24.944V24.928H84.4818C84.4391 25.056 84.3431 25.2267 84.1938 25.44C84.0444 25.6427 83.8098 25.824 83.4898 25.984C83.1698 26.144 82.7324 26.224 82.1778 26.224ZM82.5298 24.592C83.0951 24.592 83.5538 24.4373 83.9058 24.128C84.2684 23.808 84.4498 23.3867 84.4498 22.864V22.704H82.4178C82.0444 22.704 81.7511 22.784 81.5378 22.944C81.3244 23.104 81.2178 23.328 81.2178 23.616C81.2178 23.904 81.3298 24.1387 81.5538 24.32C81.7778 24.5013 82.1031 24.592 82.5298 24.592ZM88.9638 26V18.064H90.9478V18.928H91.2358C91.3744 18.6613 91.6038 18.432 91.9238 18.24C92.2438 18.0373 92.6651 17.936 93.1878 17.936C93.7531 17.936 94.2064 18.048 94.5478 18.272C94.8891 18.4853 95.1504 18.768 95.3318 19.12H95.6198C95.8011 18.7787 96.0571 18.496 96.3878 18.272C96.7184 18.048 97.1878 17.936 97.7958 17.936C98.2864 17.936 98.7291 18.0427 99.1238 18.256C99.5291 18.4587 99.8491 18.7733 100.084 19.2C100.329 19.616 100.452 20.144 100.452 20.784V26H98.4358V20.928C98.4358 20.4907 98.3238 20.1653 98.0998 19.952C97.8758 19.728 97.5611 19.616 97.1558 19.616C96.6971 19.616 96.3398 19.7653 96.0838 20.064C95.8384 20.352 95.7158 20.768 95.7158 21.312V26H93.6998V20.928C93.6998 20.4907 93.5878 20.1653 93.3638 19.952C93.1398 19.728 92.8251 19.616 92.4198 19.616C91.9611 19.616 91.6038 19.7653 91.3478 20.064C91.1024 20.352 90.9798 20.768 90.9798 21.312V26H88.9638ZM106.236 26.224C105.447 26.224 104.748 26.0587 104.14 25.728C103.543 25.3867 103.073 24.912 102.732 24.304C102.401 23.6853 102.236 22.96 102.236 22.128V21.936C102.236 21.104 102.401 20.384 102.732 19.776C103.063 19.1573 103.527 18.6827 104.124 18.352C104.721 18.0107 105.415 17.84 106.204 17.84C106.983 17.84 107.66 18.016 108.236 18.368C108.812 18.7093 109.26 19.1893 109.58 19.808C109.9 20.416 110.06 21.1253 110.06 21.936V22.624H104.284C104.305 23.168 104.508 23.6107 104.892 23.952C105.276 24.2933 105.745 24.464 106.3 24.464C106.865 24.464 107.281 24.3413 107.548 24.096C107.815 23.8507 108.017 23.5787 108.156 23.28L109.804 24.144C109.655 24.4213 109.436 24.7253 109.148 25.056C108.871 25.376 108.497 25.6533 108.028 25.888C107.559 26.112 106.961 26.224 106.236 26.224ZM104.3 21.12H108.012C107.969 20.6613 107.783 20.2933 107.452 20.016C107.132 19.7387 106.711 19.6 106.188 19.6C105.644 19.6 105.212 19.7387 104.892 20.016C104.572 20.2933 104.375 20.6613 104.3 21.12ZM111.79 26V14.8H115.71L117.646 24.56H117.934L119.87 14.8H123.79V26H121.742V16.352H121.454L119.534 26H116.046L114.126 16.352H113.838V26H111.79ZM128.428 26.224C127.862 26.224 127.356 26.128 126.908 25.936C126.46 25.7333 126.102 25.4453 125.836 25.072C125.58 24.688 125.452 24.224 125.452 23.68C125.452 23.136 125.58 22.6827 125.836 22.32C126.102 21.9467 126.465 21.6693 126.924 21.488C127.393 21.296 127.926 21.2 128.524 21.2H130.7V20.752C130.7 20.3787 130.582 20.0747 130.348 19.84C130.113 19.5947 129.74 19.472 129.228 19.472C128.726 19.472 128.353 19.5893 128.108 19.824C127.862 20.048 127.702 20.3413 127.628 20.704L125.772 20.08C125.9 19.6747 126.102 19.3067 126.38 18.976C126.668 18.6347 127.046 18.3627 127.516 18.16C127.996 17.9467 128.577 17.84 129.26 17.84C130.305 17.84 131.132 18.1013 131.74 18.624C132.348 19.1467 132.652 19.904 132.652 20.896V23.856C132.652 24.176 132.801 24.336 133.1 24.336H133.74V26H132.396C132.001 26 131.676 25.904 131.42 25.712C131.164 25.52 131.036 25.264 131.036 24.944V24.928H130.732C130.689 25.056 130.593 25.2267 130.444 25.44C130.294 25.6427 130.06 25.824 129.74 25.984C129.42 26.144 128.982 26.224 128.428 26.224ZM128.78 24.592C129.345 24.592 129.804 24.4373 130.156 24.128C130.518 23.808 130.7 23.3867 130.7 22.864V22.704H128.668C128.294 22.704 128.001 22.784 127.788 22.944C127.574 23.104 127.468 23.328 127.468 23.616C127.468 23.904 127.58 24.1387 127.804 24.32C128.028 24.5013 128.353 24.592 128.78 24.592ZM135.214 26V18.064H137.198V19.104H137.486C137.614 18.8267 137.854 18.5653 138.206 18.32C138.558 18.064 139.091 17.936 139.806 17.936C140.424 17.936 140.963 18.08 141.422 18.368C141.891 18.6453 142.254 19.0347 142.51 19.536C142.766 20.0267 142.894 20.6027 142.894 21.264V26H140.878V21.424C140.878 20.8267 140.728 20.3787 140.43 20.08C140.142 19.7813 139.726 19.632 139.182 19.632C138.563 19.632 138.083 19.84 137.742 20.256C137.4 20.6613 137.23 21.232 137.23 21.968V26H135.214ZM145.073 26V18.064H147.089V26H145.073ZM146.081 17.136C145.718 17.136 145.409 17.0187 145.153 16.784C144.908 16.5493 144.785 16.24 144.785 15.856C144.785 15.472 144.908 15.1627 145.153 14.928C145.409 14.6933 145.718 14.576 146.081 14.576C146.454 14.576 146.764 14.6933 147.009 14.928C147.254 15.1627 147.377 15.472 147.377 15.856C147.377 16.24 147.254 16.5493 147.009 16.784C146.764 17.0187 146.454 17.136 146.081 17.136ZM151.787 26.224C151.222 26.224 150.715 26.128 150.267 25.936C149.819 25.7333 149.462 25.4453 149.195 25.072C148.939 24.688 148.811 24.224 148.811 23.68C148.811 23.136 148.939 22.6827 149.195 22.32C149.462 21.9467 149.824 21.6693 150.283 21.488C150.752 21.296 151.286 21.2 151.883 21.2H154.059V20.752C154.059 20.3787 153.942 20.0747 153.707 19.84C153.472 19.5947 153.099 19.472 152.587 19.472C152.086 19.472 151.712 19.5893 151.467 19.824C151.222 20.048 151.062 20.3413 150.987 20.704L149.131 20.08C149.259 19.6747 149.462 19.3067 149.739 18.976C150.027 18.6347 150.406 18.3627 150.875 18.16C151.355 17.9467 151.936 17.84 152.619 17.84C153.664 17.84 154.491 18.1013 155.099 18.624C155.707 19.1467 156.011 19.904 156.011 20.896V23.856C156.011 24.176 156.16 24.336 156.459 24.336H157.099V26H155.755C155.36 26 155.035 25.904 154.779 25.712C154.523 25.52 154.395 25.264 154.395 24.944V24.928H154.091C154.048 25.056 153.952 25.2267 153.803 25.44C153.654 25.6427 153.419 25.824 153.099 25.984C152.779 26.144 152.342 26.224 151.787 26.224ZM152.139 24.592C152.704 24.592 153.163 24.4373 153.515 24.128C153.878 23.808 154.059 23.3867 154.059 22.864V22.704H152.027C151.654 22.704 151.36 22.784 151.147 22.944C150.934 23.104 150.827 23.328 150.827 23.616C150.827 23.904 150.939 24.1387 151.163 24.32C151.387 24.5013 151.712 24.592 152.139 24.592ZM162.145 26.224C161.377 26.224 160.678 26.064 160.049 25.744C159.43 25.424 158.94 24.96 158.577 24.352C158.214 23.744 158.033 23.008 158.033 22.144V21.92C158.033 21.056 158.214 20.32 158.577 19.712C158.94 19.104 159.43 18.64 160.049 18.32C160.678 18 161.377 17.84 162.145 17.84C162.902 17.84 163.553 17.9733 164.097 18.24C164.641 18.5067 165.078 18.8747 165.409 19.344C165.75 19.8027 165.974 20.3253 166.081 20.912L164.129 21.328C164.086 21.008 163.99 20.72 163.841 20.464C163.692 20.208 163.478 20.0053 163.201 19.856C162.934 19.7067 162.598 19.632 162.193 19.632C161.788 19.632 161.42 19.7227 161.089 19.904C160.769 20.0747 160.513 20.336 160.321 20.688C160.14 21.0293 160.049 21.4507 160.049 21.952V22.112C160.049 22.6133 160.14 23.04 160.321 23.392C160.513 23.7333 160.769 23.9947 161.089 24.176C161.42 24.3467 161.788 24.432 162.193 24.432C162.801 24.432 163.26 24.2773 163.569 23.968C163.889 23.648 164.092 23.232 164.177 22.72L166.129 23.184C165.99 23.7493 165.75 24.2667 165.409 24.736C165.078 25.1947 164.641 25.5573 164.097 25.824C163.553 26.0907 162.902 26.224 162.145 26.224Z" fill="white"/>
</svg>
