<svg width="160" height="160" viewBox="0 0 160 160" fill="none" xmlns="http://www.w3.org/2000/svg">
<path d="M20.2553 74.2533C26.1251 46.447 56.0098 28.6674 83.1925 38.2595C83.6586 38.4232 84.1246 38.5933 84.5844 38.7759C89.8732 40.92 94.9753 43.4985 99.8384 46.4848C104.877 49.4953 110.627 50.8935 116.365 51.7753C123.652 52.89 131.052 52.4051 137.665 56.1273C143.514 59.5077 148.069 64.7427 150.608 71.0034C156.906 86.4213 151.08 104.453 139.649 115.859C122.581 132.864 96.9475 134.753 74.2302 132.864C62.7928 131.919 51.1791 130.048 41.0643 124.638C22.8438 114.882 16.2119 93.4311 20.2553 74.2533Z" fill="#949494"/>
<path d="M77.1457 32.2381C73.3227 29.1646 69.0399 29.1394 64.5179 30.3109C60.6823 31.306 58.9315 27.842 56.9601 25.2724C50.8195 17.2234 38.3115 16.1338 31.0749 23.3199C28.3101 26.0596 26.3575 30.1156 27.0251 34.0772C27.655 37.9316 30.1743 41.5908 33.8839 43.0709C39.3507 45.2626 45.1701 42.3151 50.7566 43.9211C52.9735 44.5509 54.6929 46.0625 56.4249 47.4985C57.9239 48.7266 59.6872 49.8666 61.627 49.8162C63.7117 49.7658 65.4059 48.3928 67.1379 47.3977C68.8698 46.4026 70.5515 45.6468 72.2394 44.7525L76.8308 42.3151C77.2212 42.1136 77.2464 41.0555 77.4606 40.6335C79.0603 37.5348 79.8854 34.4361 77.1457 32.2381Z" fill="#1A1A1A"/>
<path d="M140.707 138.173H10.2726C10.1256 138.173 9.98457 138.115 9.88064 138.011C9.7767 137.907 9.71826 137.766 9.71826 137.619C9.71826 137.472 9.7767 137.331 9.88064 137.227C9.98457 137.123 10.1256 137.064 10.2726 137.064H140.707C140.854 137.064 140.995 137.123 141.099 137.227C141.203 137.331 141.261 137.472 141.261 137.619C141.261 137.766 141.203 137.907 141.099 138.011C140.995 138.115 140.854 138.173 140.707 138.173Z" fill="#EAEAEA"/>
<path d="M76.8376 56.0137C76.8376 56.0137 94.0377 60.668 98.1756 76.8416H74.2427L76.8376 56.0137Z" fill="#3656B3"/>
<path d="M76.8376 56.0137C76.8376 56.0137 94.0377 60.668 98.1756 76.8416H74.2427L76.8376 56.0137Z" fill="#EAEAEA"/>
<path d="M85.5985 106.128H32.3291L37.5564 57.481C37.5564 57.481 53.0373 50.1878 68.5118 53.1983C83.9863 56.2088 88.3131 66.4055 88.3131 78.4727C88.3131 91.7806 85.5985 106.128 85.5985 106.128Z" fill="white"/>
<path d="M74.3432 67.6399C74.3129 67.9549 74.4024 68.2698 74.5938 68.5219C74.7852 68.7739 75.0644 68.9447 75.376 69.0003C75.9428 69.0003 76.4027 68.3704 76.4027 67.6399C76.4027 66.9093 75.9428 66.2795 75.376 66.2795C74.8092 66.2795 74.3432 66.8841 74.3432 67.6399Z" fill="#949494"/>
<path d="M65.8663 43.7453L63.3345 53.1484L69.5506 55.3212L72.0447 45.8362L65.8663 43.7453Z" fill="#DD6050"/>
<path d="M71.6039 51.5862L72.4479 57.6198C72.4569 57.6968 72.4434 57.7747 72.4092 57.8443C72.375 57.9138 72.3214 57.972 72.255 58.0119C72.1885 58.0518 72.1119 58.0717 72.0345 58.0691C71.957 58.0666 71.8819 58.0418 71.8181 57.9977L69.2421 56.1082L67.7054 58.8227C67.6371 58.9418 67.5435 59.0444 67.4313 59.1233C67.319 59.2023 67.1909 59.2556 67.0558 59.2796C66.9207 59.3037 66.7818 59.2978 66.6492 59.2623C66.5167 59.2269 66.3935 59.1629 66.2884 59.0747L59.9902 52.5057L64.273 49.7849L69.0155 53.6205L71.6039 51.5862Z" fill="#949494"/>
<path d="M64.3797 37.4216C65.7716 36.7918 67.5665 37.6735 68.4105 39.4307C68.8262 39.4937 69.0404 38.423 69.9536 36.987L74.3119 31.5014L79.1866 39.8842C79.1866 39.8842 78.0719 45.6154 76.0376 49.2684C74.0033 52.9213 71.0432 53.4503 68.8641 52.1781C66.6849 50.9059 65.4757 47.1018 65.8346 44.0598C65.2776 43.904 64.7624 43.6258 64.3265 43.2456C63.8907 42.8653 63.5453 42.3925 63.3154 41.8618C62.4903 40.0542 62.969 38.0766 64.3797 37.4216Z" fill="#FFAF99"/>
<path d="M67.7681 42.8252C67.7681 42.6489 68.2971 40.5453 68.5617 39.4305C67.5666 37.6734 65.7717 36.7727 64.3798 37.4214C62.9879 38.0701 62.4904 40.0603 63.3406 41.8616C63.5705 42.3924 63.916 42.8651 64.3518 43.2454C64.7876 43.6257 65.3029 43.9039 65.8599 44.0596C65.5009 47.1016 66.773 50.9435 68.8892 52.1779C69.7551 52.6871 70.7668 52.8912 71.7624 52.7576C72.758 52.624 73.68 52.1604 74.3811 51.441C69.3363 51.9701 67.4091 47.1079 67.7681 42.8252Z" fill="url(#paint0_linear_2610_2795)"/>
<path d="M69.2292 44.8093C69.2929 45.0932 69.4392 45.3519 69.6497 45.5528C69.8602 45.7536 70.1255 45.8877 70.4121 45.938C70.6986 45.9884 70.9937 45.9528 71.2601 45.8358C71.5265 45.7187 71.7522 45.5255 71.909 45.2803C72.0657 45.0352 72.1463 44.7491 72.1407 44.4582C72.1351 44.1674 72.0436 43.8846 71.8776 43.6457C71.7116 43.4067 71.4785 43.2223 71.2078 43.1155C70.9371 43.0088 70.641 42.9845 70.3566 43.0459C69.9741 43.1317 69.641 43.3652 69.4298 43.6955C69.2187 44.0258 69.1466 44.4261 69.2292 44.8093Z" fill="#EA7D6A"/>
<path d="M77.738 45.2251C77.5484 45.2662 77.3688 45.3443 77.2095 45.4549C77.0502 45.5655 76.9143 45.7064 76.8095 45.8697C76.7048 46.0329 76.6333 46.2152 76.5992 46.4062C76.5651 46.5971 76.5689 46.7929 76.6106 46.9823C76.6548 47.1857 76.743 47.377 76.8689 47.5429C77.1964 46.7871 77.4987 45.9935 77.7506 45.2188L77.738 45.2251Z" fill="#EA7D6A"/>
<path d="M73.0838 49.0986C72.9263 49.0482 72.8822 48.9412 72.92 48.8467C73.0082 48.6263 73.1971 47.9461 72.92 47.776C72.4924 47.6361 72.0312 47.6361 71.6036 47.776C71.5577 47.7898 71.5081 47.785 71.4657 47.7626C71.4233 47.7403 71.3915 47.7021 71.377 47.6564C71.3648 47.6104 71.3702 47.5616 71.3924 47.5196C71.4145 47.4776 71.4518 47.4454 71.4966 47.4296C72.0147 47.2496 72.5783 47.2496 73.0964 47.4296C73.7262 47.7823 73.3105 48.8278 73.2601 48.9475C73.254 48.9897 73.2327 49.0284 73.2003 49.0562C73.1679 49.084 73.1265 49.0991 73.0838 49.0986Z" fill="#5C2C27"/>
<path d="M64.1346 41.3141C64.7644 42.4603 65.9737 43.0146 66.805 42.5737C67.6364 42.1328 67.8 40.7976 67.1576 39.6514C66.5152 38.5051 65.3249 37.9572 64.4872 38.4232C63.6496 38.8893 63.4985 40.193 64.1346 41.3141Z" fill="#DD6050"/>
<path d="M72.2213 42.8253C72.2941 42.8527 72.3747 42.8509 72.4462 42.8204C72.5178 42.7899 72.5749 42.733 72.6055 42.6616L72.8826 41.9814C72.9003 41.9448 72.9103 41.9051 72.912 41.8645C72.9137 41.8239 72.9071 41.7835 72.8925 41.7456C72.8778 41.7077 72.8556 41.6733 72.8271 41.6444C72.7986 41.6155 72.7644 41.5927 72.7267 41.5776C72.689 41.5624 72.6487 41.5552 72.6082 41.5563C72.5676 41.5574 72.5276 41.5669 72.4908 41.5841C72.4541 41.6013 72.4213 41.6258 72.3944 41.6563C72.3676 41.6867 72.3471 41.7223 72.3346 41.7609L72.0575 42.4348C72.0283 42.5084 72.0291 42.5905 72.0597 42.6635C72.0903 42.7365 72.1483 42.7946 72.2213 42.8253Z" fill="#93372B"/>
<path d="M76.5231 44.255C76.5975 44.2773 76.6775 44.27 76.7467 44.2349C76.8159 44.1997 76.8689 44.1392 76.8948 44.0661L77.1088 43.367C77.1327 43.2927 77.1262 43.2119 77.0908 43.1423C77.0554 43.0727 76.994 43.0199 76.9198 42.9954C76.8827 42.9828 76.8433 42.9779 76.8042 42.981C76.7651 42.9841 76.727 42.9951 76.6923 43.0133C76.6575 43.0316 76.6267 43.0568 76.602 43.0872C76.5773 43.1177 76.5591 43.1529 76.5483 43.1907L76.3278 43.8897C76.3162 43.9265 76.3121 43.9653 76.3157 44.0037C76.3193 44.0421 76.3304 44.0794 76.3486 44.1134C76.3668 44.1475 76.3917 44.1775 76.4216 44.2018C76.4516 44.2261 76.4861 44.2442 76.5231 44.255Z" fill="#93372B"/>
<path d="M71.7926 85.9927C71.7452 85.9928 71.6996 85.9744 71.6655 85.9415C71.6315 85.9086 71.6115 85.8637 71.6099 85.8164C71.6099 73.3965 69.0906 56.2719 69.0528 56.1018L68.8135 53.5826C68.8099 53.5361 68.8241 53.49 68.8534 53.4537C68.8826 53.4174 68.9248 53.3936 68.971 53.3874C69.0192 53.3837 69.0668 53.3987 69.1043 53.4291C69.1418 53.4596 69.1663 53.5032 69.1726 53.5511L69.4055 56.0389C69.4055 56.2026 71.9752 73.3524 71.9752 85.7975C71.977 85.8225 71.9735 85.8476 71.9651 85.8713C71.9567 85.8949 71.9435 85.9166 71.9263 85.9349C71.9092 85.9532 71.8885 85.9678 71.8654 85.9777C71.8424 85.9877 71.8176 85.9928 71.7926 85.9927Z" fill="#0E2371"/>
<path d="M19.2978 45.5084L17.062 43.2726C17.0037 43.2138 16.9575 43.1442 16.9261 43.0676C16.8947 42.9911 16.8786 42.9091 16.8789 42.8263C16.8792 42.7436 16.8959 42.6617 16.9278 42.5853C16.9597 42.509 17.0064 42.4397 17.0651 42.3814C17.1238 42.3231 17.1935 42.2769 17.2701 42.2455C17.3466 42.2141 17.4286 42.1981 17.5113 42.1984C17.5941 42.1987 17.6759 42.2153 17.7523 42.2472C17.8286 42.2791 17.898 42.3258 17.9563 42.3845L20.1922 44.6141L22.4216 42.3845C22.4799 42.3258 22.5493 42.2791 22.6256 42.2472C22.702 42.2153 22.7838 42.1987 22.8666 42.1984C22.9493 42.1981 23.0314 42.2141 23.108 42.2455C23.1846 42.2769 23.2541 42.3231 23.3128 42.3814C23.3715 42.4397 23.4182 42.509 23.4501 42.5853C23.4821 42.6617 23.4987 42.7436 23.499 42.8263C23.4993 42.9091 23.4832 42.9911 23.4518 43.0676C23.4204 43.1442 23.3743 43.2138 23.316 43.2726L21.0802 45.5084L23.316 47.7442C23.3743 47.8029 23.4204 47.8726 23.4518 47.9492C23.4832 48.0257 23.4993 48.1077 23.499 48.1905C23.4987 48.2732 23.4821 48.3551 23.4501 48.4315C23.4182 48.5078 23.3715 48.5771 23.3128 48.6354C23.2541 48.6937 23.1846 48.7399 23.108 48.7713C23.0314 48.8027 22.9493 48.8187 22.8666 48.8184C22.7838 48.8181 22.702 48.8015 22.6256 48.7696C22.5493 48.7377 22.4799 48.691 22.4216 48.6323L20.1922 46.4027L17.9563 48.6323C17.898 48.691 17.8286 48.7377 17.7523 48.7696C17.6759 48.8015 17.5941 48.8181 17.5113 48.8184C17.4286 48.8187 17.3466 48.8027 17.2701 48.7713C17.1935 48.7399 17.1238 48.6937 17.0651 48.6354C17.0064 48.5771 16.9597 48.5078 16.9278 48.4314C16.8959 48.3551 16.8792 48.2732 16.8789 48.1905C16.8786 48.1077 16.8947 48.0257 16.9261 47.9492C16.9575 47.8726 17.0037 47.8029 17.062 47.7442L19.2978 45.5084Z" fill="#3E3E3E"/>
<path d="M143.737 95.5343L140.5 90.4517L137.269 95.5343H143.737Z" fill="white"/>
<path d="M105.815 45.7229C105.815 46.5138 106.05 47.2871 106.489 47.9447C106.929 48.6024 107.553 49.115 108.284 49.4177C109.015 49.7204 109.819 49.7996 110.595 49.6453C111.371 49.491 112.083 49.1101 112.643 48.5508C113.202 47.9915 113.583 47.2789 113.737 46.5031C113.891 45.7273 113.812 44.9232 113.51 44.1924C113.207 43.4616 112.694 42.837 112.037 42.3975C111.379 41.9581 110.606 41.7235 109.815 41.7235C109.289 41.7227 108.769 41.8256 108.283 42.0263C107.798 42.227 107.356 42.5215 106.985 42.8931C106.613 43.2646 106.319 43.7058 106.118 44.1914C105.918 44.677 105.815 45.1974 105.815 45.7229Z" fill="#EAEAEA"/>
<path d="M89.2703 47.4295C89.2505 47.5836 89.2884 47.7397 89.3768 47.8676C89.4652 47.9955 89.5977 48.0862 89.7489 48.1223C90.9204 48.5316 92.0855 48.9536 93.2318 49.4134C93.5114 49.5396 93.7354 49.7635 93.8616 50.0432C94.334 51.1894 94.7621 52.3483 95.1652 53.5134C95.2399 53.7632 95.2221 54.0316 95.1149 54.2692C94.5796 55.4596 93.9875 56.6247 93.4521 57.8151C93.4097 57.9289 93.3934 58.0508 93.4043 58.1718C93.4152 58.2928 93.4531 58.4098 93.5152 58.5142C94.5544 59.6163 95.6314 60.6807 96.7021 61.7703C98.0814 61.1405 99.3976 60.5107 100.733 59.8808C100.99 59.7831 101.275 59.7831 101.533 59.8808C102.679 60.3469 103.813 60.8319 104.934 61.3546C105.213 61.4809 105.437 61.7048 105.563 61.9844C106.029 63.2063 106.449 64.4407 106.823 65.6877C106.835 65.7702 106.862 65.8496 106.905 65.9213C106.947 65.9929 107.004 66.0555 107.07 66.1053C107.137 66.1551 107.213 66.1911 107.294 66.2113C107.375 66.2316 107.459 66.2355 107.541 66.2231C108.851 66.1916 110.161 66.2231 111.465 66.2231C111.621 66.2424 111.778 66.2027 111.906 66.1118C112.035 66.0209 112.124 65.8854 112.158 65.7318C112.573 64.4722 113.002 63.2126 113.468 61.9529C113.581 61.6987 113.779 61.4917 114.028 61.3672C115.124 60.8508 116.258 60.4099 117.341 59.8745C117.495 59.7836 117.67 59.7357 117.848 59.7357C118.026 59.7357 118.201 59.7836 118.355 59.8745C119.482 60.4288 120.635 60.9515 121.762 61.5121C121.829 61.5617 121.904 61.5978 121.984 61.6183C122.064 61.6389 122.147 61.6434 122.229 61.6317C122.311 61.62 122.39 61.5923 122.461 61.5502C122.532 61.508 122.594 61.4523 122.644 61.3861C123.551 60.4372 124.477 59.5114 125.421 58.6086C125.49 58.5604 125.548 58.499 125.593 58.4279C125.637 58.3569 125.667 58.2778 125.681 58.1951C125.694 58.1124 125.691 58.0278 125.671 57.9463C125.652 57.8648 125.616 57.7881 125.566 57.7206C125.025 56.631 124.527 55.5163 123.985 54.433C123.884 54.2592 123.83 54.0613 123.83 53.8599C123.83 53.6584 123.884 53.4606 123.985 53.2867C124.508 52.2475 124.924 51.1517 125.428 50.0999C125.553 49.8073 125.775 49.5669 126.058 49.4197C127.317 48.9473 128.577 48.5316 129.836 48.1223C129.913 48.1093 129.987 48.0812 130.053 48.0397C130.12 47.9981 130.177 47.9438 130.222 47.88C130.267 47.8162 130.299 47.7441 130.316 47.6678C130.333 47.5916 130.335 47.5127 130.321 47.4358C130.321 46.1257 130.321 44.8157 130.321 43.512C130.321 43.0774 130.158 42.8822 129.78 42.7877C128.52 42.3847 127.298 41.969 126.076 41.5281C125.793 41.3969 125.56 41.1755 125.415 40.8983C124.873 39.815 124.363 38.715 123.885 37.5981C123.778 37.3248 123.778 37.0211 123.885 36.7478C124.395 35.5701 124.955 34.4175 125.522 33.265C125.573 33.199 125.611 33.1236 125.632 33.0431C125.654 32.9625 125.659 32.8786 125.648 32.796C125.637 32.7134 125.609 32.6338 125.567 32.5619C125.525 32.4899 125.469 32.4271 125.403 32.3769C124.451 31.4763 123.513 30.5442 122.625 29.5995C122.529 29.4767 122.391 29.394 122.237 29.3672C122.084 29.3405 121.926 29.3716 121.794 29.4546C120.647 30.0277 119.476 30.5631 118.33 31.1362C118.177 31.2247 118.003 31.2712 117.826 31.2712C117.649 31.2712 117.475 31.2247 117.322 31.1362C116.283 30.6575 115.212 30.2356 114.135 29.8766C113.962 29.8351 113.802 29.7487 113.673 29.6259C113.544 29.5032 113.449 29.3485 113.398 29.1775C113.008 28.0249 112.567 26.8976 112.17 25.7513C112.159 25.667 112.132 25.5858 112.089 25.5124C112.046 25.4391 111.989 25.3752 111.92 25.3246C111.852 25.274 111.774 25.2377 111.692 25.218C111.609 25.1982 111.523 25.1954 111.44 25.2097C110.13 25.2097 108.82 25.2412 107.516 25.2097C107.075 25.2097 106.924 25.3797 106.792 25.7576C106.395 26.9228 105.979 28.0942 105.532 29.2405C105.397 29.5036 105.174 29.7109 104.902 29.8262C103.787 30.2986 102.654 30.7457 101.514 31.1551C101.249 31.2342 100.964 31.2209 100.708 31.1173C99.5173 30.582 98.3396 30.0152 97.1681 29.4357C97.0487 29.3531 96.9018 29.32 96.7585 29.3435C96.6152 29.367 96.4866 29.4452 96.3998 29.5617C95.4614 30.5379 94.5103 31.4826 93.5593 32.4714C93.4924 32.5712 93.4496 32.6851 93.4343 32.8043C93.419 32.9234 93.4315 33.0445 93.4711 33.1579C94.019 34.4175 94.6299 35.6016 95.1841 36.836C95.2724 37.0737 95.2724 37.3352 95.1841 37.5729C94.7747 38.694 94.3466 39.8024 93.8742 40.892C93.7487 41.1828 93.5261 41.421 93.2444 41.5659C92.1233 42.0257 90.977 42.435 89.8307 42.8255C89.7464 42.8369 89.6652 42.8653 89.5921 42.909C89.519 42.9526 89.4556 43.0106 89.4056 43.0795C89.3555 43.1484 89.3199 43.2267 89.301 43.3097C89.2821 43.3927 89.2802 43.4787 89.2955 43.5624C89.3039 44.8304 89.2954 46.1194 89.2703 47.4295ZM101.835 45.4707C101.832 43.9573 102.279 42.4771 103.118 41.2173C103.956 39.9575 105.15 38.9747 106.547 38.3933C107.945 37.8118 109.483 37.6577 110.968 37.9505C112.453 38.2433 113.817 38.9699 114.889 40.0383C115.961 41.1067 116.692 42.469 116.99 43.9529C117.288 45.4368 117.139 46.9757 116.562 48.3749C115.985 49.7741 115.006 50.9708 113.749 51.8137C112.492 52.6566 111.013 53.1079 109.5 53.1104C108.495 53.1129 107.499 52.9171 106.569 52.5344C105.64 52.1517 104.795 51.5894 104.083 50.8799C103.371 50.1703 102.806 49.3273 102.421 48.3991C102.035 47.471 101.836 46.4759 101.835 45.4707Z" fill="#C9C9C9"/>
<path d="M126.102 63.9304C126.085 64.0419 126.111 64.1557 126.176 64.2482C126.24 64.3408 126.338 64.4051 126.448 64.428C127.279 64.7177 128.104 65.0138 128.923 65.3413C129.116 65.4343 129.27 65.5927 129.358 65.7884C129.692 66.6009 129.988 67.4259 130.284 68.251C130.334 68.4304 130.321 68.622 130.246 68.7926C129.868 69.6366 129.446 70.4679 129.068 71.3119C129.035 71.3913 129.023 71.4774 129.03 71.5629C129.038 71.6484 129.066 71.7308 129.112 71.8031C129.849 72.5904 130.611 73.3461 131.379 74.1271C132.356 73.6611 133.269 73.2076 134.245 72.7856C134.428 72.7164 134.629 72.7164 134.812 72.7856C135.631 73.1131 136.437 73.4595 137.23 73.8311C137.425 73.9238 137.581 74.0821 137.671 74.2783C138.005 75.1474 138.301 76.0229 138.591 76.9109C138.599 76.9693 138.619 77.0255 138.649 77.0761C138.68 77.1268 138.72 77.171 138.767 77.2061C138.815 77.2412 138.868 77.2666 138.926 77.2808C138.983 77.295 139.043 77.2977 139.101 77.2888C140.033 77.2888 140.965 77.2888 141.897 77.2888C142.009 77.3053 142.123 77.2777 142.214 77.2119C142.306 77.1461 142.369 77.0472 142.389 76.9361C142.678 76.0355 142.987 75.1411 143.321 74.2594C143.399 74.0778 143.54 73.9303 143.717 73.8437C144.498 73.4721 145.298 73.1572 146.073 72.7793C146.181 72.7144 146.306 72.6801 146.432 72.6801C146.558 72.6801 146.683 72.7144 146.791 72.7793C147.597 73.1761 148.416 73.5477 149.216 73.9445C149.312 74.0138 149.431 74.0433 149.548 74.0269C149.666 74.0104 149.772 73.9493 149.846 73.8563C150.475 73.1761 151.149 72.5211 151.823 71.8787C151.92 71.8082 151.984 71.7024 152.003 71.5845C152.022 71.4666 151.993 71.346 151.924 71.2489C151.54 70.4742 151.187 69.6807 150.803 68.906C150.73 68.7829 150.692 68.6426 150.692 68.4997C150.692 68.3569 150.73 68.2166 150.803 68.0935C151.181 67.3567 151.471 66.5757 151.83 65.8262C151.92 65.6163 152.083 65.4462 152.289 65.3475C153.171 65.0074 154.072 64.7177 154.972 64.4217C155.083 64.4017 155.181 64.339 155.246 64.2471C155.311 64.1552 155.337 64.0414 155.319 63.9304C155.319 62.9983 155.319 62.0725 155.319 61.1404C155.335 61.0202 155.303 60.8985 155.23 60.8018C155.157 60.7051 155.048 60.6411 154.928 60.6239C154.046 60.3342 153.165 60.0445 152.296 59.7107C152.091 59.6137 151.927 59.449 151.83 59.2446C151.439 58.4763 151.08 57.689 150.74 56.9018C150.66 56.6994 150.66 56.4743 150.74 56.2719C151.105 55.4406 151.502 54.6155 151.911 53.7968C151.981 53.7007 152.01 53.5815 151.994 53.4642C151.977 53.3468 151.916 53.2404 151.823 53.167C151.149 52.5372 150.494 51.8696 149.846 51.1957C149.782 51.104 149.685 51.0413 149.575 51.0212C149.465 51.0011 149.352 51.0254 149.26 51.0886C148.441 51.498 147.61 51.8758 146.791 52.2915C146.681 52.3533 146.558 52.3858 146.432 52.3858C146.306 52.3858 146.183 52.3533 146.073 52.2915C145.333 51.9514 144.576 51.6487 143.806 51.3846C143.684 51.3529 143.571 51.2906 143.48 51.2035C143.388 51.1165 143.321 51.0076 143.283 50.8871C143.006 50.0683 142.691 49.2621 142.407 48.4434C142.389 48.3245 142.324 48.2177 142.228 48.1458C142.131 48.074 142.01 48.0429 141.891 48.0592C140.959 48.0844 140.027 48.0844 139.095 48.0592C138.786 48.0592 138.679 48.1851 138.585 48.4497C138.301 49.281 138.005 50.1124 137.678 50.9311C137.579 51.118 137.419 51.2649 137.224 51.3468C136.431 51.6806 135.624 51.9766 134.812 52.2915C134.626 52.3544 134.425 52.3544 134.239 52.2915C133.389 51.9073 132.551 51.5043 131.72 51.0949C131.635 51.035 131.53 51.0107 131.428 51.0272C131.325 51.0437 131.233 51.0997 131.172 51.1831C130.504 51.8759 129.811 52.5497 129.156 53.2551C129.108 53.3251 129.076 53.4053 129.064 53.4895C129.052 53.5736 129.06 53.6594 129.087 53.7401C129.477 54.6218 129.912 55.4784 130.309 56.3538C130.372 56.5245 130.372 56.7122 130.309 56.8828C130.019 57.6764 129.679 58.47 129.377 59.2446C129.282 59.4518 129.12 59.6207 128.917 59.7233C128.123 60.0508 127.305 60.3531 126.492 60.6239C126.374 60.6455 126.267 60.7117 126.196 60.8089C126.125 60.9061 126.093 61.027 126.108 61.1467C126.133 62.0977 126.133 62.9983 126.102 63.9304ZM135.045 62.5386C135.042 61.4606 135.36 60.406 135.957 59.5085C136.554 58.6109 137.404 57.9107 138.399 57.4964C139.395 57.0822 140.49 56.9725 141.548 57.1813C142.605 57.39 143.578 57.9079 144.341 58.6693C145.104 59.4307 145.624 60.4014 145.835 61.4585C146.046 62.5156 145.939 63.6117 145.527 64.6079C145.115 65.6041 144.417 66.4557 143.521 67.0548C142.625 67.654 141.571 67.9739 140.493 67.9739C139.051 67.9739 137.669 67.4012 136.649 66.3819C135.63 65.3626 135.058 63.9801 135.058 62.5386H135.045Z" fill="#3E3E3E"/>
<path d="M124.218 75.1035H33.6257C29.9038 75.1035 26.8867 78.1207 26.8867 81.8425V137.619C26.8867 141.341 29.9038 144.358 33.6257 144.358H124.218C127.94 144.358 130.957 141.341 130.957 137.619V81.8425C130.957 78.1207 127.94 75.1035 124.218 75.1035Z" fill="#5E5E5E"/>
<path d="M130.963 85.9867V81.8425C130.962 80.0557 130.251 78.3426 128.988 77.0792C127.724 75.8157 126.011 75.1052 124.224 75.1035H33.6257C31.8389 75.1052 30.1259 75.8157 28.8624 77.0792C27.599 78.3426 26.8884 80.0557 26.8867 81.8425V85.9867H130.963Z" fill="#C9C9C9"/>
<path d="M120.144 81.1118C120.144 81.7009 120.318 82.2769 120.646 82.7668C120.973 83.2567 121.438 83.6385 121.983 83.864C122.527 84.0895 123.126 84.1485 123.704 84.0335C124.282 83.9186 124.812 83.6348 125.229 83.2182C125.646 82.8016 125.929 82.2708 126.044 81.6929C126.159 81.1151 126.1 80.5161 125.875 79.9717C125.649 79.4274 125.268 78.9621 124.778 78.6348C124.288 78.3074 123.712 78.1328 123.123 78.1328C122.332 78.1328 121.575 78.4466 121.016 79.0053C120.457 79.564 120.144 80.3217 120.144 81.1118Z" fill="white"/>
<path d="M111.748 81.1118C111.748 81.7009 111.923 82.2769 112.25 82.7668C112.577 83.2567 113.043 83.6385 113.587 83.864C114.131 84.0895 114.73 84.1485 115.308 84.0335C115.886 83.9186 116.417 83.6348 116.834 83.2182C117.25 82.8016 117.534 82.2708 117.649 81.6929C117.764 81.1151 117.705 80.5161 117.479 79.9717C117.254 79.4274 116.872 78.9621 116.382 78.6348C115.892 78.3074 115.316 78.1328 114.727 78.1328C113.937 78.1328 113.179 78.4466 112.621 79.0053C112.062 79.564 111.748 80.3217 111.748 81.1118Z" fill="#3E3E3E"/>
<path d="M55.3483 72.408C55.3483 72.408 32.3287 82.0819 33.5317 92.2408C34.2245 98.1295 52.0355 116.218 52.0355 116.218L47.3749 120.671C47.3749 120.671 15.8843 118.573 9.22084 100.592C4.84995 88.7957 10.7891 74.0014 24.0088 64.7557C30.9946 59.887 38.8334 56.3747 47.1168 54.4017L55.3483 72.408Z" fill="white"/>
<path d="M9.23971 100.585C9.70063 101.826 10.2873 103.016 10.9906 104.138C13.2671 103.032 15.1839 101.304 16.5192 99.1535C17.8544 97.0035 18.5537 94.5193 18.5359 91.9884C18.5181 89.4575 17.784 86.9834 16.4186 84.8523C15.0532 82.7213 13.1124 81.0204 10.8205 79.9465C7.54552 86.7926 6.85272 94.1362 9.23971 100.585Z" fill="#949494"/>
<path d="M82.6443 138.109H123.771C124.505 138.109 125.1 137.514 125.1 136.781V95.6538C125.1 94.9198 124.505 94.3249 123.771 94.3249H82.6443C81.9104 94.3249 81.3155 94.9198 81.3155 95.6538V136.781C81.3155 137.514 81.9104 138.109 82.6443 138.109Z" fill="white"/>
<path d="M46.6257 103.344H56.6964C56.8773 103.344 57.0239 103.198 57.0239 103.017V92.9461C57.0239 92.7653 56.8773 92.6186 56.6964 92.6186H46.6257C46.4448 92.6186 46.2982 92.7653 46.2982 92.9461V103.017C46.2982 103.198 46.4448 103.344 46.6257 103.344Z" fill="#949494"/>
<path d="M62.2258 136.598H72.2965C72.4774 136.598 72.624 136.452 72.624 136.271V126.2C72.624 126.019 72.4774 125.873 72.2965 125.873H62.2258C62.0449 125.873 61.8983 126.019 61.8983 126.2V136.271C61.8983 136.452 62.0449 136.598 62.2258 136.598Z" fill="#949494"/>
<path d="M40.7872 124.714C41.0048 125.122 41.3007 125.482 41.6579 125.775C42.015 126.069 42.4265 126.289 42.8687 126.422C43.311 126.556 43.7754 126.602 44.2352 126.556C44.6951 126.51 45.1414 126.375 45.5487 126.156L81.5739 106.878C82.0005 106.671 82.3808 106.38 82.6922 106.022C83.0036 105.665 83.2397 105.248 83.3862 104.797C83.5326 104.346 83.5864 103.87 83.5444 103.398C83.5024 102.926 83.3655 102.467 83.1418 102.049C82.9182 101.631 82.6124 101.262 82.2428 100.965C81.8732 100.668 81.4475 100.449 80.9912 100.321C80.5348 100.192 80.057 100.157 79.5868 100.218C79.1166 100.279 78.6636 100.434 78.2548 100.674L42.2295 119.959C41.4079 120.398 40.7943 121.146 40.5239 122.038C40.2534 122.929 40.3481 123.892 40.7872 124.714Z" fill="white"/>
<g style="mix-blend-mode:soft-light">
<path d="M78.2359 100.674L65.2114 107.646C65.9946 109.874 67.144 111.956 68.6124 113.805L81.555 106.878C81.9816 106.671 82.3619 106.38 82.6733 106.022C82.9848 105.665 83.2209 105.248 83.3673 104.797C83.5137 104.346 83.5675 103.87 83.5255 103.398C83.4835 102.926 83.3466 102.467 83.1229 102.049C82.8993 101.631 82.5935 101.262 82.2239 100.965C81.8543 100.668 81.4287 100.449 80.9723 100.321C80.5159 100.192 80.0383 100.157 79.5681 100.218C79.0979 100.279 78.6447 100.434 78.2359 100.674Z" fill="white"/>
</g>
<path d="M74.9171 30.8024C74.9171 30.8024 81.9269 32.9437 79.6029 40.9613L74.4574 39.1978L75.0116 36.1621L73.519 39.0025L69.8597 37.8878C69.8597 37.8878 69.3873 39.4308 68.4111 39.4308V33.561C68.4111 33.561 72.3538 30.4938 74.9171 30.8024Z" fill="#1A1A1A"/>
<g style="mix-blend-mode:soft-light">
<path d="M13.6483 98.3689C9.27741 86.5725 15.2165 71.7782 28.43 62.5326C30.3866 61.1647 32.4155 59.9033 34.5078 58.7537C30.843 60.4292 27.3355 62.4295 24.0276 64.7306C10.8015 73.9763 4.86872 88.7706 9.23962 100.567C15.8841 118.567 47.3748 120.671 47.3748 120.671L48.5148 119.581L49.8814 118.271C42.9976 117.477 19.3229 113.686 13.6483 98.3689Z" fill="white"/>
</g>
<path d="M50.4049 111.343C48.9146 111.677 47.5523 112.433 46.4812 113.522C43.2313 116.822 43.3949 118.982 43.9933 120.387C44.5916 121.791 46.8086 126.055 50.0963 125.866C50.8206 125.828 52.0549 124.651 51.9353 124.153C52.2946 124.317 52.6975 124.361 53.0836 124.277C53.4697 124.193 53.8181 123.986 54.0766 123.687C54.3722 123.458 54.5876 123.142 54.6918 122.783C54.7959 122.424 54.7835 122.042 54.6561 121.69C55.0033 121.773 55.3661 121.764 55.7086 121.664C56.0511 121.563 56.3612 121.375 56.6084 121.117C57.3579 120.261 55.7079 118.598 54.3727 117.017C53.8063 116.353 53.2785 115.657 52.7919 114.933C52.7529 114.874 52.7265 114.808 52.7145 114.739C52.7026 114.669 52.7053 114.598 52.7225 114.53C52.7397 114.462 52.7711 114.398 52.8145 114.342C52.8579 114.287 52.9123 114.241 52.9744 114.208L54.7064 113.276C54.7064 113.276 52.5021 110.996 50.4049 111.343Z" fill="url(#paint1_linear_2610_2795)"/>
<path d="M51.9347 124.336C50.5924 123.451 49.4423 122.305 48.5527 120.966C48.5293 120.925 48.5228 120.877 48.5345 120.831C48.5463 120.785 48.5753 120.746 48.6155 120.721C48.6353 120.708 48.6575 120.7 48.6806 120.696C48.7037 120.692 48.7274 120.692 48.7502 120.698C48.7731 120.703 48.7947 120.713 48.8137 120.726C48.8328 120.74 48.849 120.758 48.8613 120.778C49.6933 122.047 50.7625 123.144 52.0103 124.008C52.0299 124.021 52.0466 124.038 52.0597 124.057C52.0728 124.076 52.0821 124.098 52.0867 124.121C52.0914 124.144 52.0915 124.167 52.0871 124.19C52.0826 124.213 52.0735 124.235 52.0606 124.254C52.0461 124.275 52.0275 124.294 52.0059 124.308C51.9842 124.322 51.96 124.331 51.9347 124.336Z" fill="#5C2C27"/>
<path d="M54.6559 121.867C53.4635 120.824 52.4057 119.638 51.5068 118.334C51.4809 118.293 51.4723 118.243 51.483 118.196C51.4936 118.149 51.5225 118.108 51.5634 118.082C51.5832 118.069 51.6053 118.06 51.6284 118.056C51.6516 118.052 51.6754 118.053 51.6982 118.058C51.7211 118.064 51.7427 118.073 51.7617 118.087C51.7808 118.101 51.7969 118.118 51.8091 118.138C52.6604 119.387 53.6537 120.532 54.7692 121.552C54.802 121.587 54.8202 121.633 54.8202 121.681C54.8202 121.729 54.802 121.775 54.7692 121.81C54.7391 121.842 54.6991 121.862 54.6559 121.867Z" fill="#5C2C27"/>
<path d="M74.9166 46.6927C74.8713 46.693 74.8275 46.6763 74.7938 46.6461C74.76 46.6158 74.7386 46.5741 74.734 46.529C74.7313 46.5053 74.7337 46.4813 74.7406 46.4586C74.7475 46.4358 74.7589 46.4146 74.7742 46.3964C74.7895 46.3781 74.8084 46.3632 74.8296 46.3524C74.8508 46.3416 74.8739 46.3353 74.8977 46.3337C75.7102 46.2518 76.6423 46.0062 76.6864 45.7795C76.7305 45.5528 76.17 45.1812 75.8739 44.967C75.4835 44.6899 75.2442 44.5387 75.3135 44.3372C75.3828 44.1357 75.8425 42.8068 75.8992 42.6619C75.9159 42.6177 75.9494 42.5818 75.9925 42.5623C76.0356 42.5429 76.0848 42.5413 76.129 42.558C76.1733 42.5747 76.209 42.6083 76.2285 42.6514C76.248 42.6945 76.2497 42.7436 76.233 42.7879C76.0377 43.3106 75.748 44.1231 75.685 44.3624C75.8088 44.4776 75.9415 44.5829 76.0818 44.6773C76.5731 45.0237 77.1273 45.4205 77.0392 45.8488C76.9195 46.4471 75.3953 46.6423 74.9355 46.6864L74.9166 46.6927Z" fill="#5C2C27"/>
<path d="M62.4907 46.8563C59.4361 46.8563 57.2821 44.4819 55.3612 42.3658L54.4669 41.3959C52.4452 39.2545 50.4235 38.2468 48.0994 38.1838H47.8413C46.227 38.2383 44.6218 38.4492 43.0483 38.8136C42.0847 39.0089 41.0834 39.2041 40.0946 39.3238L39.7733 39.3679C37.9658 39.5883 36.1016 39.8276 34.294 39.0907C31.9574 38.1397 30.2128 35.7653 29.7405 32.8997C29.7312 32.8373 29.7463 32.7736 29.7826 32.722C29.819 32.6704 29.8738 32.6348 29.9358 32.6226C29.9972 32.615 30.0591 32.6309 30.1094 32.6671C30.1596 32.7033 30.1943 32.7571 30.2065 32.8178C30.6537 35.526 32.2849 37.7618 34.4704 38.6499C36.1646 39.3364 37.884 39.1285 39.7105 38.8955L40.0317 38.8577C41.0142 38.738 42.0029 38.5365 42.9539 38.3476C44.6411 37.9391 46.3699 37.7278 48.1057 37.7178C50.5683 37.7744 52.6972 38.8388 54.8133 41.0809C55.1094 41.3896 55.4053 41.7108 55.7076 42.0572C57.8301 44.3875 60.0218 46.7996 63.2654 46.3273C63.3277 46.3199 63.3906 46.3367 63.441 46.3742C63.4913 46.4116 63.5253 46.467 63.5362 46.5288C63.5452 46.5914 63.529 46.6551 63.4913 46.7058C63.4535 46.7566 63.3973 46.7903 63.3347 46.7996C63.0551 46.8383 62.773 46.8573 62.4907 46.8563Z" fill="#5E5E5E"/>
<path d="M61.344 33.6178C59.0476 33.5607 56.8228 32.8074 54.9641 31.4575C53.2582 30.2383 51.7354 28.7812 50.4421 27.1307C47.9229 24.0446 45.5296 22.659 42.3931 22.489C42.1601 22.489 41.9207 22.489 41.6876 22.489C38.8609 22.4236 36.1163 23.4421 34.0165 25.3357C33.9719 25.3792 33.9119 25.4035 33.8496 25.4035C33.7872 25.4035 33.7274 25.3792 33.6827 25.3357C33.6604 25.314 33.6427 25.2881 33.6306 25.2594C33.6185 25.2308 33.6123 25.1999 33.6123 25.1688C33.6123 25.1377 33.6185 25.1069 33.6306 25.0783C33.6427 25.0496 33.6604 25.0237 33.6827 25.0019C35.7737 22.9613 39.0614 21.8529 42.412 22.0418C45.7626 22.2308 48.2062 23.6541 50.801 26.8536C52.0615 28.4689 53.546 29.8962 55.2097 31.0922C58.195 33.1517 61.5519 33.7248 64.2034 32.6101C64.261 32.5858 64.3259 32.5855 64.3838 32.6091C64.4417 32.6328 64.4878 32.6784 64.512 32.736C64.5362 32.7937 64.5366 32.8585 64.5129 32.9164C64.4893 32.9743 64.4437 33.0204 64.3861 33.0446C63.4204 33.4364 62.3861 33.6313 61.344 33.6178Z" fill="#5E5E5E"/>
<path d="M58.7115 38.6309C56.8598 36.9493 55.0334 35.274 52.8731 34.2222C51.0527 33.3395 49.0215 32.9839 47.0095 33.1956C46.0294 33.3029 45.059 33.4839 44.1062 33.7373C42.3175 34.1592 40.4657 34.6001 38.6519 34.1152C37.549 33.7784 36.544 33.1797 35.7225 32.3704C34.9011 31.561 34.2877 30.5649 33.9346 29.4671C33.9129 29.4087 33.9154 29.344 33.9414 29.2873C33.9673 29.2306 34.0147 29.1865 34.0731 29.1648C34.1316 29.1431 34.1963 29.1455 34.253 29.1715C34.3097 29.1975 34.3539 29.2449 34.3756 29.3034C35.2132 31.5518 36.813 33.1389 38.7843 33.6554C40.5037 34.1151 42.2859 33.6869 44.0053 33.2775C44.983 33.0183 45.9788 32.833 46.9843 32.7233C49.0833 32.5061 51.2014 32.8791 53.0999 33.8002C55.2442 34.9793 57.1959 36.4788 58.8878 38.2467C58.9101 38.2684 58.9279 38.2944 58.94 38.323C58.9521 38.3517 58.9583 38.3825 58.9583 38.4136C58.9583 38.4447 58.9521 38.4755 58.94 38.5042C58.9279 38.5329 58.9101 38.5588 58.8878 38.5805C58.8638 38.6011 58.8355 38.6162 58.8051 38.6249C58.7747 38.6336 58.7428 38.6356 58.7115 38.6309Z" fill="#5E5E5E"/>
<path d="M66.6847 43.9339C66.6847 44.1096 66.6326 44.2813 66.5351 44.4273C66.4375 44.5733 66.2988 44.6871 66.1365 44.7544C65.9742 44.8216 65.7957 44.8392 65.6234 44.8049C65.4511 44.7706 65.2929 44.686 65.1687 44.5618C65.0445 44.4377 64.96 44.2794 64.9258 44.1072C64.8915 43.9349 64.909 43.7564 64.9762 43.5941C65.0434 43.4318 65.1572 43.2931 65.3033 43.1956C65.4493 43.098 65.6211 43.0459 65.7967 43.0459C66.0322 43.0459 66.2581 43.1395 66.4247 43.306C66.5912 43.4725 66.6847 43.6984 66.6847 43.9339Z" fill="#FBFADC"/>
<path d="M110.867 71.362C112.233 70.4298 113.197 70.8266 113.512 70.9652C113.682 70.6125 114.142 70.2409 115.2 70.222C116.258 70.2031 116.768 70.5936 116.982 70.9589C117.501 70.5982 118.141 70.4557 118.765 70.5621C120.654 70.6818 121.208 72.0358 121.75 73.4655C122.292 74.8952 122.556 77.4207 120.824 77.49C120.539 77.51 120.254 77.4461 120.004 77.3062C119.755 77.1663 119.551 76.9566 119.419 76.7028C119.272 77.0728 119.008 77.3845 118.666 77.5903C118.325 77.7961 117.926 77.8848 117.53 77.8427C117.158 77.8813 116.783 77.8008 116.459 77.613C116.136 77.4252 115.88 77.1396 115.729 76.7972C115.536 77.0978 115.267 77.3426 114.95 77.5072C114.633 77.6718 114.278 77.7506 113.921 77.7357C111.843 77.553 111.503 75.1031 111.503 75.1031H108.247C108.247 75.1031 109.097 72.5586 110.867 71.362Z" fill="url(#paint2_linear_2610_2795)"/>
<path d="M119.413 76.8792C119.368 76.8793 119.325 76.8625 119.292 76.8321C119.259 76.8017 119.24 76.76 119.236 76.7155C119.012 74.6333 118.182 72.6625 116.849 71.0472C116.817 71.0122 116.798 70.966 116.798 70.9181C116.798 70.8701 116.817 70.8239 116.849 70.7889C116.883 70.7566 116.928 70.7385 116.975 70.7385C117.022 70.7385 117.067 70.7566 117.101 70.7889C118.491 72.4493 119.355 74.4863 119.583 76.6399C119.585 76.6636 119.583 76.6875 119.576 76.7103C119.569 76.7331 119.558 76.7543 119.543 76.7725C119.527 76.7907 119.508 76.8057 119.487 76.8165C119.466 76.8272 119.443 76.8336 119.419 76.8352L119.413 76.8792Z" fill="#5C2C27"/>
<path d="M115.798 76.9741C115.752 76.9741 115.708 76.9564 115.675 76.9247C115.642 76.8929 115.623 76.8497 115.622 76.804C115.514 74.4233 113.379 71.0979 113.36 71.0664C113.347 71.0464 113.337 71.0238 113.333 71C113.328 70.9762 113.329 70.9517 113.334 70.9281C113.339 70.9045 113.349 70.8822 113.364 70.8626C113.378 70.8431 113.396 70.8267 113.417 70.8145C113.458 70.7906 113.506 70.7831 113.551 70.7937C113.597 70.8042 113.637 70.832 113.663 70.8712C113.751 71.0097 115.867 74.31 115.98 76.7851C115.981 76.8096 115.977 76.8341 115.968 76.857C115.96 76.8799 115.946 76.9007 115.929 76.9184C115.912 76.936 115.892 76.95 115.869 76.9596C115.847 76.9691 115.822 76.9741 115.798 76.9741Z" fill="#5C2C27"/>
<path d="M2.45052 81.6218C0.550693 78.9149 -0.289697 75.6049 0.0887271 72.3195C0.288419 70.4059 0.909998 68.5604 1.90866 66.916C2.90733 65.2715 4.25833 63.869 5.86421 62.8093C5.73447 62.6241 5.62468 62.4257 5.5367 62.2173C5.27612 61.6272 5.14993 60.9866 5.16736 60.3417C5.18479 59.6969 5.34534 59.064 5.63741 58.4888C6.70809 56.2467 9.41626 54.6092 11.4317 54.0361C12.7382 53.683 14.1022 53.5947 15.4433 53.7764C16.7845 53.9581 18.0759 54.4061 19.2414 55.0941C19.2823 55.1184 19.3119 55.1578 19.3237 55.2039C19.3355 55.2499 19.3285 55.2988 19.3043 55.3398C19.2801 55.3807 19.2406 55.4103 19.1945 55.4221C19.1485 55.4339 19.0997 55.427 19.0588 55.4027C17.9369 54.7364 16.6924 54.3027 15.3994 54.1274C14.1063 53.9521 12.7913 54.0389 11.5325 54.3824C9.56751 54.9367 6.98522 56.5049 5.95862 58.6463C5.68868 59.1756 5.54058 59.7586 5.52532 60.3525C5.51006 60.9465 5.6281 61.5363 5.87052 62.0787C5.95169 62.2703 6.05079 62.4538 6.16651 62.6267C6.53925 62.4094 6.92635 62.2179 7.32527 62.0536C8.15676 61.6618 9.1045 61.5944 9.98306 61.8646C10.2229 61.9581 10.4399 62.1021 10.6192 62.2869C10.7985 62.4716 10.936 62.6928 11.0223 62.9353C11.0741 63.0808 11.0908 63.2365 11.0711 63.3897C11.0514 63.5429 10.9959 63.6893 10.909 63.817C10.7433 64.0232 10.526 64.1818 10.2792 64.2768C9.87301 64.4501 9.43596 64.5394 8.99436 64.5394C8.55277 64.5394 8.11571 64.4501 7.70952 64.2768C7.06431 64.0258 6.49399 63.6139 6.05303 63.0802C4.48524 64.1098 3.1662 65.4752 2.19128 67.0776C1.21635 68.6799 0.609989 70.4791 0.416242 72.3447C0.061935 75.499 0.826604 78.6777 2.57661 81.3258C2.58955 81.3452 2.59843 81.367 2.6029 81.3899C2.60738 81.4128 2.60728 81.4363 2.6026 81.4592C2.59791 81.482 2.58881 81.5037 2.57569 81.523C2.56256 81.5422 2.54571 81.5587 2.52618 81.5714C2.50501 81.5936 2.47912 81.6108 2.45052 81.6218ZM6.38685 62.9101C6.786 63.3773 7.29449 63.7386 7.86697 63.9619C8.22902 64.1135 8.61755 64.1915 9.01005 64.1915C9.40254 64.1915 9.79107 64.1135 10.1531 63.9619C10.3324 63.8887 10.4904 63.7718 10.6129 63.6218C10.6683 63.5394 10.7035 63.4452 10.7156 63.3467C10.7276 63.2482 10.7161 63.1482 10.6822 63.055C10.6112 62.8652 10.501 62.6926 10.3589 62.5482C10.2167 62.4039 10.0458 62.2912 9.85713 62.2173C9.06444 61.9781 8.21101 62.0432 7.46381 62.3999C7.09474 62.5431 6.73507 62.7093 6.38685 62.8975V62.9101Z" fill="white"/>
<path d="M146.545 126.131C146.511 126.131 146.478 126.121 146.449 126.103C146.42 126.086 146.397 126.06 146.381 126.03C146.371 126.009 146.364 125.986 146.363 125.962C146.361 125.939 146.364 125.915 146.372 125.893C146.379 125.87 146.391 125.85 146.407 125.832C146.423 125.815 146.442 125.801 146.463 125.79C148.353 124.89 149.908 122.9 150.658 120.33C151.204 118.656 151.493 116.908 151.514 115.147C150.805 115.224 150.086 115.144 149.411 114.914C148.686 114.655 148 114.063 148.094 113.314C148.135 113.107 148.218 112.91 148.339 112.737C148.459 112.563 148.614 112.417 148.794 112.306C149.09 112.069 149.451 111.926 149.829 111.897C150.208 111.868 150.587 111.953 150.916 112.142C151.334 112.501 151.605 113.001 151.678 113.547C151.766 113.939 151.824 114.337 151.854 114.737C152.478 114.624 153.08 114.411 153.637 114.107C154.879 113.371 155.936 112.358 156.723 111.147C159.96 106.518 160.558 100.692 158.253 96.29C158.233 96.248 158.229 96.1998 158.244 96.1553C158.258 96.1108 158.288 96.0734 158.329 96.0507C158.35 96.0388 158.373 96.0313 158.397 96.0286C158.421 96.026 158.445 96.0283 158.468 96.0354C158.491 96.0425 158.512 96.0542 158.531 96.0698C158.549 96.0855 158.564 96.1047 158.575 96.1263C160.936 100.642 160.325 106.619 157.019 111.355C156.203 112.614 155.102 113.665 153.807 114.422C153.206 114.759 152.552 114.989 151.873 115.103C151.862 116.915 151.568 118.715 151.004 120.437C150.223 123.107 148.63 125.18 146.596 126.105C146.58 126.117 146.563 126.125 146.545 126.131ZM150.06 112.237C149.677 112.251 149.308 112.376 148.995 112.596C148.724 112.771 148.53 113.044 148.453 113.358C148.378 113.906 148.957 114.372 149.53 114.573C150.161 114.791 150.833 114.864 151.495 114.788C151.468 114.396 151.411 114.006 151.325 113.622C151.267 113.164 151.043 112.743 150.696 112.438C150.502 112.303 150.271 112.232 150.034 112.237H150.06Z" fill="white"/>
<path d="M156.465 47.2216C156.326 47.1901 156.269 47.0956 156.294 46.9948C156.484 46.1866 156.593 45.3618 156.622 44.5323C156.623 44.5091 156.628 44.4863 156.638 44.4652C156.647 44.4441 156.661 44.4252 156.678 44.4094C156.695 44.3936 156.715 44.3813 156.737 44.3732C156.758 44.3651 156.782 44.3614 156.805 44.3622C156.829 44.3602 156.853 44.3635 156.876 44.3721C156.899 44.3806 156.919 44.3942 156.936 44.4116C156.953 44.4291 156.966 44.4502 156.974 44.4732C156.981 44.4963 156.984 44.5207 156.981 44.5449C156.953 45.3939 156.839 46.238 156.641 47.0641C156.635 47.107 156.614 47.1464 156.582 47.1752C156.549 47.2041 156.508 47.2205 156.465 47.2216ZM156.66 42.1831C156.617 42.1849 156.575 42.1703 156.542 42.1423C156.509 42.1142 156.488 42.0748 156.483 42.0319C156.357 41.2083 156.167 40.3956 155.917 39.6008C155.91 39.5785 155.907 39.555 155.909 39.5317C155.911 39.5084 155.918 39.4857 155.929 39.4649C155.939 39.4441 155.954 39.4257 155.972 39.4107C155.99 39.3956 156.011 39.3843 156.033 39.3772C156.055 39.3702 156.079 39.3677 156.102 39.3697C156.126 39.3718 156.148 39.3784 156.169 39.3892C156.19 39.4 156.208 39.4148 156.223 39.4328C156.238 39.4507 156.25 39.4714 156.257 39.4938C156.517 40.3037 156.711 41.1336 156.836 41.9752C156.843 42.0228 156.832 42.0713 156.803 42.1102C156.775 42.1491 156.733 42.1753 156.685 42.1831H156.66ZM155.117 37.3965C155.084 37.3961 155.051 37.3865 155.024 37.3687C154.996 37.3509 154.974 37.3256 154.959 37.2957C154.581 36.5534 154.145 35.8416 153.656 35.1669C153.629 35.1278 153.619 35.0803 153.626 35.0337C153.633 34.9871 153.657 34.9447 153.693 34.915C153.713 34.9008 153.735 34.8906 153.758 34.8851C153.781 34.8796 153.805 34.8789 153.829 34.883C153.852 34.8871 153.875 34.896 153.895 34.9091C153.915 34.9222 153.932 34.9392 153.945 34.9591C154.449 35.646 154.895 36.3727 155.281 37.132C155.291 37.153 155.298 37.176 155.299 37.1995C155.301 37.223 155.298 37.2466 155.29 37.2689C155.282 37.2913 155.27 37.3118 155.255 37.3294C155.239 37.347 155.22 37.3612 155.199 37.3713C155.175 37.392 155.147 37.4071 155.117 37.4154V37.3965ZM133.659 33.8065C133.337 33.8012 133.019 33.7371 132.721 33.6176C132.26 33.459 131.874 33.1361 131.637 32.7107C131.617 32.6678 131.613 32.6186 131.627 32.573C131.641 32.5275 131.672 32.4889 131.713 32.4651C131.755 32.4423 131.804 32.4367 131.85 32.4497C131.896 32.4626 131.935 32.493 131.959 32.5343C132.15 32.8843 132.464 33.1512 132.84 33.2838C133.184 33.429 133.561 33.477 133.93 33.4224C133.977 33.4148 134.026 33.4255 134.066 33.4524C134.105 33.4794 134.133 33.5204 134.144 33.5672C134.149 33.5904 134.148 33.6143 134.143 33.6374C134.139 33.6605 134.129 33.6824 134.116 33.7018C134.102 33.7212 134.085 33.7377 134.065 33.7503C134.045 33.7628 134.023 33.7713 133.999 33.7751C133.887 33.7955 133.773 33.806 133.659 33.8065ZM152.144 33.3531C151.426 32.7233 150.784 32.1753 150.116 31.6841C150.097 31.6704 150.08 31.6528 150.068 31.6326C150.055 31.6123 150.047 31.5897 150.043 31.5662C150.04 31.5426 150.041 31.5186 150.047 31.4956C150.053 31.4726 150.064 31.451 150.078 31.4322C150.107 31.3943 150.15 31.3692 150.197 31.3621C150.244 31.355 150.292 31.3666 150.33 31.3944C151.014 31.899 151.662 32.4503 152.27 33.0445C152.287 33.0609 152.3 33.0805 152.309 33.1021C152.318 33.1237 152.323 33.147 152.323 33.1704C152.323 33.1939 152.318 33.2171 152.309 33.2388C152.3 33.2604 152.287 33.28 152.27 33.2964C152.24 33.3282 152.2 33.3483 152.157 33.3531H152.144ZM135.479 31.9423C135.341 31.9108 135.284 31.8101 135.309 31.7156C135.459 31.0737 135.531 30.416 135.523 29.7569C135.523 29.5868 135.523 29.423 135.523 29.2593C135.523 29.0955 135.624 29.0578 135.706 29.0704C135.752 29.0703 135.797 29.0878 135.831 29.1193C135.865 29.1509 135.885 29.1942 135.889 29.2404C135.889 29.4105 135.889 29.5868 135.889 29.7569C135.899 30.4459 135.822 31.1336 135.662 31.8037C135.652 31.8421 135.631 31.8764 135.6 31.9014C135.569 31.9264 135.531 31.9407 135.492 31.9423H135.479ZM148.075 30.3804C147.308 29.9819 146.519 29.6245 145.714 29.3097C145.687 29.3046 145.662 29.2937 145.641 29.2779C145.619 29.262 145.601 29.2416 145.588 29.2181C145.575 29.1946 145.568 29.1685 145.566 29.1417C145.565 29.1149 145.569 29.0881 145.579 29.0631C145.589 29.0382 145.604 29.0157 145.624 28.9973C145.643 28.979 145.666 28.9651 145.692 28.9568C145.717 28.9485 145.744 28.9459 145.771 28.9492C145.798 28.9525 145.823 28.9616 145.846 28.9759C146.64 29.2771 147.412 29.6328 148.157 30.0403C148.179 30.0509 148.198 30.0658 148.214 30.0841C148.229 30.1024 148.241 30.1237 148.248 30.1467C148.255 30.1698 148.258 30.194 148.255 30.2179C148.252 30.2418 148.245 30.265 148.233 30.2859C148.219 30.3116 148.199 30.3335 148.175 30.35C148.151 30.3664 148.123 30.3768 148.094 30.3804H148.075ZM131.782 30.3804C131.625 30.33 131.581 30.2229 131.618 30.1347C131.794 29.6589 132.074 29.2284 132.437 28.8751C132.718 28.6271 133.029 28.4155 133.363 28.2453C133.406 28.223 133.455 28.2184 133.501 28.2326C133.547 28.2467 133.586 28.2785 133.609 28.3209C133.62 28.3413 133.628 28.364 133.63 28.3875C133.633 28.4109 133.631 28.4347 133.624 28.4572C133.616 28.4797 133.605 28.5005 133.589 28.5182C133.574 28.536 133.555 28.5503 133.533 28.5602C133.223 28.7351 132.936 28.9466 132.677 29.19C132.355 29.5071 132.106 29.8894 131.946 30.3111C131.927 30.3287 131.904 30.3419 131.878 30.3495C131.853 30.3571 131.827 30.3591 131.801 30.3552L131.782 30.3804ZM143.377 28.5791C142.547 28.3662 141.706 28.1981 140.858 28.0753C140.834 28.0731 140.811 28.0659 140.791 28.0543C140.77 28.0427 140.752 28.027 140.738 28.008C140.723 27.989 140.713 27.9672 140.708 27.9441C140.703 27.921 140.702 27.897 140.707 27.8737C140.707 27.773 140.795 27.7226 140.908 27.7163C141.756 27.8409 142.597 28.009 143.427 28.2201C143.47 28.2317 143.508 28.2586 143.532 28.2957C143.557 28.3329 143.567 28.3778 143.561 28.4219C143.555 28.466 143.533 28.5063 143.499 28.5353C143.465 28.5642 143.422 28.5798 143.377 28.5791ZM135.87 27.8926C135.824 27.8929 135.781 27.8762 135.747 27.846C135.713 27.8157 135.692 27.774 135.687 27.7289C135.684 27.6814 135.699 27.6344 135.729 27.598C135.76 27.5615 135.803 27.5384 135.851 27.5336C136.334 27.4829 136.82 27.4577 137.306 27.458C137.671 27.458 138.03 27.458 138.395 27.458C138.419 27.458 138.442 27.4628 138.464 27.472C138.486 27.4813 138.506 27.4949 138.522 27.5119C138.539 27.5289 138.552 27.5491 138.56 27.5713C138.569 27.5934 138.572 27.617 138.572 27.6407C138.57 27.688 138.55 27.7329 138.516 27.7658C138.482 27.7987 138.436 27.8171 138.389 27.817C138.024 27.817 137.665 27.817 137.306 27.817C136.83 27.8168 136.355 27.842 135.882 27.8926H135.87ZM135.24 26.9794C135.204 26.9792 135.17 26.9683 135.14 26.948C135.111 26.9278 135.089 26.8992 135.076 26.866C134.772 26.0919 134.386 25.3529 133.924 24.6617C133.907 24.6221 133.904 24.5778 133.917 24.5367C133.93 24.4956 133.956 24.4603 133.993 24.437C134.029 24.4136 134.072 24.4038 134.115 24.4092C134.157 24.4146 134.197 24.4348 134.226 24.4664C134.701 25.1773 135.098 25.9375 135.41 26.7338C135.42 26.7559 135.425 26.78 135.425 26.8043C135.425 26.8286 135.42 26.8526 135.409 26.8746C135.399 26.8967 135.385 26.9164 135.366 26.9323C135.348 26.9482 135.326 26.9599 135.303 26.9668C135.287 26.966 135.272 26.9617 135.259 26.9542L135.24 26.9794ZM89.0557 25.5686C88.8605 25.4552 88.8542 25.3419 88.9235 25.2663C89.5092 24.6365 90.1138 24.0067 90.6996 23.465C90.7153 23.4439 90.7356 23.4263 90.7588 23.4137C90.782 23.4011 90.8076 23.3936 90.834 23.3919C90.8603 23.3901 90.8866 23.3941 90.9113 23.4035C90.936 23.413 90.9584 23.4277 90.9768 23.4466C90.9952 23.4655 91.0093 23.4882 91.0182 23.513C91.027 23.5379 91.0303 23.5645 91.0279 23.5908C91.0254 23.6171 91.0174 23.6425 91.0042 23.6654C90.991 23.6883 90.973 23.708 90.9514 23.7233C90.3594 24.2838 89.7737 24.8884 89.1879 25.5119C89.1709 25.5298 89.1504 25.5441 89.1277 25.5538C89.1049 25.5636 89.0804 25.5686 89.0557 25.5686ZM132.513 22.7219C131.883 22.1487 131.373 21.6575 130.831 21.1977L130.548 20.9647C130.515 20.9307 130.497 20.8856 130.497 20.8387C130.497 20.7918 130.515 20.7467 130.548 20.7128C130.582 20.6818 130.627 20.6646 130.674 20.6646C130.72 20.6646 130.765 20.6818 130.8 20.7128C130.9 20.7883 130.995 20.8702 131.083 20.9458C131.641 21.4122 132.171 21.9106 132.67 22.4384C132.703 22.4734 132.721 22.5196 132.721 22.5675C132.721 22.6155 132.703 22.6617 132.67 22.6967C132.63 22.7319 132.578 22.75 132.525 22.747L132.513 22.7219ZM92.7023 22.092C92.5008 21.9472 92.5134 21.8338 92.589 21.7708C93.2629 21.2166 93.9494 20.7064 94.617 20.2467C94.6562 20.2267 94.7013 20.2215 94.744 20.2321C94.7867 20.2427 94.8242 20.2684 94.8495 20.3044C94.8748 20.3405 94.8861 20.3844 94.8816 20.4282C94.8771 20.472 94.857 20.5126 94.8249 20.5427C94.1573 20.9962 93.4833 21.5063 92.8157 22.048C92.806 22.0664 92.7927 22.0826 92.7764 22.0956C92.7602 22.1086 92.7413 22.1181 92.7212 22.1235L92.7023 22.092ZM128.602 19.535C127.802 19.0627 127.071 18.6533 126.309 18.2754C126.288 18.2647 126.268 18.2498 126.253 18.2317C126.237 18.2135 126.225 18.1924 126.217 18.1696C126.209 18.1468 126.207 18.1227 126.208 18.0987C126.21 18.0747 126.216 18.0512 126.227 18.0297C126.249 17.9879 126.286 17.9559 126.33 17.9407C126.375 17.9254 126.424 17.928 126.467 17.9479C127.232 18.3263 127.977 18.7468 128.696 19.2075C128.717 19.2191 128.735 19.2349 128.749 19.2539C128.764 19.2728 128.774 19.2946 128.779 19.3177C128.784 19.3409 128.785 19.3649 128.78 19.3882C128.776 19.4115 128.766 19.4336 128.753 19.4531C128.742 19.4819 128.725 19.5074 128.702 19.5273C128.678 19.5472 128.651 19.5607 128.621 19.5665L128.602 19.535ZM96.8718 19.2579C96.8326 19.2557 96.795 19.2409 96.7649 19.2158C96.7348 19.1906 96.7135 19.1564 96.7043 19.1183C96.6951 19.0801 96.6985 19.04 96.7139 19.0039C96.7292 18.9678 96.7559 18.9376 96.7898 18.9178C97.5359 18.5148 98.3058 18.1572 99.095 17.8471C99.1394 17.832 99.1879 17.8339 99.2309 17.8525C99.274 17.8711 99.3086 17.9051 99.328 17.9479C99.3372 17.9702 99.3419 17.9941 99.3418 18.0183C99.3417 18.0424 99.3369 18.0663 99.3275 18.0886C99.3181 18.1108 99.3044 18.131 99.2872 18.1479C99.27 18.1649 99.2497 18.1782 99.2273 18.1872C98.4506 18.491 97.6934 18.8423 96.9599 19.239C96.939 19.2538 96.9156 19.2645 96.8907 19.2705L96.8718 19.2579ZM101.57 17.444C101.53 17.4438 101.49 17.4301 101.458 17.405C101.426 17.3799 101.404 17.3449 101.394 17.3055C101.388 17.2827 101.387 17.2591 101.391 17.2359C101.394 17.2128 101.403 17.1906 101.415 17.1706C101.427 17.1507 101.443 17.1334 101.463 17.1198C101.482 17.1062 101.503 17.0965 101.526 17.0913C102.263 16.915 103.056 16.7638 104.045 16.619C104.069 16.6123 104.094 16.6111 104.118 16.6155C104.143 16.6198 104.166 16.6297 104.186 16.6442C104.206 16.6588 104.222 16.6776 104.234 16.6995C104.246 16.7213 104.252 16.7454 104.253 16.7701C104.259 16.8167 104.246 16.8636 104.218 16.9011C104.19 16.9386 104.148 16.9639 104.102 16.9717C103.145 17.1165 102.364 17.2677 101.633 17.4377L101.57 17.444ZM124.061 17.3496L123.236 17.0913C122.7 16.9276 122.14 16.7764 121.586 16.6505C121.54 16.6396 121.5 16.6109 121.475 16.5708C121.45 16.5306 121.443 16.4823 121.453 16.4363C121.464 16.3904 121.493 16.3506 121.533 16.3258C121.573 16.301 121.621 16.2932 121.667 16.3041C122.228 16.43 122.795 16.5812 123.336 16.7449L124.117 16.9969C124.14 17.0046 124.161 17.0168 124.179 17.0329C124.197 17.0489 124.211 17.0685 124.221 17.0903C124.231 17.1121 124.237 17.1358 124.237 17.1598C124.238 17.1838 124.233 17.2076 124.224 17.2299C124.219 17.2669 124.202 17.3012 124.176 17.3283C124.15 17.3553 124.116 17.3737 124.08 17.381L124.061 17.3496ZM106.552 16.6379C106.51 16.63 106.472 16.6077 106.445 16.575C106.418 16.5422 106.403 16.501 106.403 16.4584C106.403 16.4158 106.418 16.3745 106.445 16.3418C106.472 16.309 106.51 16.2867 106.552 16.2789C107.39 16.1781 108.227 16.0773 109.071 15.9892C109.094 15.9865 109.118 15.9885 109.14 15.9951C109.163 16.0016 109.184 16.0125 109.202 16.0271C109.22 16.0418 109.235 16.0599 109.246 16.0804C109.257 16.1009 109.264 16.1234 109.266 16.1466C109.27 16.1703 109.269 16.1944 109.263 16.2175C109.256 16.2407 109.246 16.2623 109.231 16.2812C109.216 16.3001 109.198 16.3157 109.177 16.3272C109.156 16.3387 109.133 16.3458 109.109 16.3481C108.271 16.4363 107.44 16.5308 106.59 16.6379H106.552ZM119.148 16.2285C118.323 16.1277 117.485 16.0584 116.629 16.0206C116.605 16.0207 116.582 16.0159 116.561 16.0066C116.539 15.9973 116.52 15.9836 116.504 15.9665C116.488 15.9493 116.476 15.9291 116.468 15.907C116.46 15.8848 116.457 15.8614 116.459 15.838C116.459 15.7912 116.477 15.7464 116.511 15.7133C116.544 15.6802 116.588 15.6616 116.635 15.6616C117.517 15.6994 118.367 15.7687 119.154 15.8695C119.178 15.8726 119.2 15.8803 119.22 15.8921C119.241 15.904 119.258 15.9197 119.272 15.9385C119.286 15.9573 119.297 15.9787 119.302 16.0014C119.308 16.0242 119.309 16.0479 119.306 16.071C119.309 16.1129 119.297 16.1546 119.273 16.189C119.249 16.2234 119.214 16.2485 119.173 16.26L119.148 16.2285ZM111.59 16.1214C111.545 16.1232 111.5 16.1071 111.466 16.0765C111.432 16.0459 111.411 16.0033 111.408 15.9577C111.406 15.9337 111.409 15.9096 111.417 15.8868C111.424 15.8639 111.436 15.8429 111.452 15.8247C111.468 15.8066 111.487 15.7917 111.509 15.781C111.53 15.7704 111.554 15.764 111.578 15.7624C112.441 15.6994 113.297 15.6616 114.097 15.6428C114.12 15.641 114.144 15.6441 114.166 15.6519C114.188 15.6597 114.208 15.6719 114.226 15.6879C114.243 15.7039 114.256 15.7232 114.266 15.7447C114.275 15.7662 114.28 15.7894 114.28 15.8128C114.281 15.8365 114.277 15.8601 114.268 15.8822C114.26 15.9044 114.247 15.9245 114.23 15.9416C114.214 15.9586 114.194 15.9722 114.172 15.9815C114.151 15.9907 114.127 15.9955 114.103 15.9954C113.297 15.9954 112.453 16.0584 111.584 16.1214H111.59Z" fill="white"/>
<path d="M97.1929 18.5084C97.1929 19.0269 97.3466 19.5337 97.6348 19.9647C97.923 20.3957 98.3326 20.7315 98.8117 20.9296C99.2908 21.1277 99.8179 21.1792 100.326 21.0776C100.835 20.976 101.302 20.7258 101.668 20.3588C102.034 19.9917 102.283 19.5243 102.383 19.0157C102.484 18.507 102.431 17.98 102.232 17.5014C102.032 17.0228 101.696 16.614 101.264 16.3269C100.832 16.0397 100.325 15.8871 99.8065 15.8884C99.4628 15.8884 99.1225 15.9562 98.8049 16.088C98.4874 16.2197 98.1989 16.4128 97.9562 16.6561C97.7134 16.8995 97.521 17.1884 97.39 17.5062C97.259 17.8241 97.1921 18.1646 97.1929 18.5084Z" fill="#5E5E5E"/>
<path d="M150.563 34.1532C150.562 34.6719 150.715 35.1793 151.002 35.6112C151.29 36.043 151.699 36.3798 152.178 36.5789C152.657 36.778 153.184 36.8304 153.693 36.7295C154.202 36.6286 154.669 36.3789 155.036 36.0121C155.403 35.6453 155.653 35.1779 155.753 34.6691C155.854 34.1603 155.802 33.633 155.603 33.154C155.404 32.675 155.067 32.2658 154.635 31.9784C154.203 31.691 153.696 31.5382 153.177 31.5395C152.484 31.5395 151.819 31.8148 151.329 32.305C150.839 32.7952 150.563 33.46 150.563 34.1532Z" fill="#C9C9C9"/>
<path d="M110.894 105.861L108.078 104.383C105.605 103.086 104.369 102.437 103.04 102.437C101.711 102.437 100.475 103.084 98.0021 104.383L97.5502 104.62L110.114 111.8L115.768 108.97C114.859 107.939 113.392 107.169 110.894 105.858V105.861ZM116.765 110.834L111.136 113.65V117.925C111.136 118.205 111.025 118.473 110.827 118.671C110.629 118.869 110.36 118.981 110.08 118.981C109.8 118.981 109.531 118.869 109.333 118.671C109.135 118.473 109.024 118.205 109.024 117.925V114.705L104.096 117.169V130.461C105.107 130.209 106.257 129.607 108.078 128.651L110.894 127.172C113.922 125.583 115.437 124.789 116.279 123.36C117.12 121.932 117.12 120.154 117.12 116.601V116.436C117.12 113.771 117.12 112.104 116.765 110.834ZM101.984 130.461V117.17L89.3148 110.834C88.96 112.104 88.96 113.771 88.96 116.434V116.598C88.96 120.154 88.96 121.932 89.8005 123.36C90.6425 124.789 92.1575 125.584 95.1861 127.174L98.0021 128.651C99.8227 129.607 100.973 130.209 101.984 130.461ZM90.3116 108.971L103.04 115.335L107.843 112.935L95.3312 105.785L95.1861 105.861C92.6898 107.17 91.2212 107.941 90.3116 108.973V108.971Z" fill="#949494"/>
<path d="M72.6807 87.9201C70.1726 90.4192 68.4622 93.6059 67.7655 97.0773C67.0688 100.549 67.4172 104.149 68.7668 107.422C70.1163 110.695 72.4063 113.495 75.3471 115.466C78.2879 117.438 81.7474 118.493 85.288 118.499C88.8286 118.504 92.2913 117.459 95.238 115.496C98.1847 113.533 100.483 110.741 101.842 107.471C103.202 104.202 103.561 100.603 102.874 97.1297C102.188 93.6563 100.487 90.4644 97.9866 87.9579C94.6352 84.5984 90.0868 82.7072 85.3415 82.7001C80.5962 82.693 76.0421 84.5706 72.6807 87.9201Z" fill="#EAEAEA"/>
<path d="M75.0869 90.6309C73.0594 92.6539 71.677 95.2325 71.1146 98.0408C70.5521 100.849 70.8348 103.761 71.9269 106.409C73.019 109.057 74.8716 111.321 77.2503 112.916C79.6291 114.512 82.4274 115.366 85.2915 115.371C88.1556 115.376 90.957 114.533 93.3416 112.946C95.7263 111.36 97.5872 109.102 98.689 106.458C99.7909 103.815 100.084 100.904 99.5323 98.0932C98.9802 95.2828 97.6074 92.6991 95.5873 90.6687C94.2444 89.3189 92.6486 88.2472 90.8911 87.5147C89.1336 86.7822 87.2489 86.4033 85.3449 86.3998C83.4409 86.3963 81.5548 86.7682 79.7947 87.4942C78.0345 88.2202 76.4348 89.2861 75.0869 90.6309Z" fill="#949494"/>
<path d="M80.7265 96.1856C80.7239 96.246 80.7337 96.3064 80.7554 96.3629C80.777 96.4194 80.8099 96.4709 80.8522 96.5142C80.8945 96.5576 80.9451 96.5918 81.0011 96.6148C81.0571 96.6378 81.1172 96.6491 81.1777 96.648H82.7223C82.9807 96.648 83.1866 96.4365 83.2203 96.18C83.3888 94.9517 84.2314 94.0568 85.7329 94.0568C87.0173 94.0568 88.1931 94.699 88.1931 96.2436C88.1931 97.4325 87.4929 97.9792 86.3863 98.8105C85.1263 99.726 84.1284 100.795 84.1995 102.531L84.2051 102.937C84.2071 103.06 84.2573 103.177 84.3449 103.263C84.4324 103.349 84.5504 103.398 84.6732 103.398H86.1916C86.3158 103.398 86.4348 103.348 86.5226 103.26C86.6104 103.173 86.6597 103.054 86.6597 102.929V102.733C86.6597 101.389 87.1708 100.997 88.5507 99.9507C89.6909 99.0838 90.8798 98.1215 90.8798 96.1013C90.8798 93.2723 88.4908 91.9056 85.8752 91.9056C83.503 91.9056 80.9043 93.0102 80.7265 96.1856ZM83.6416 106.975C83.6416 107.973 84.4373 108.711 85.5326 108.711C86.6728 108.711 87.4573 107.973 87.4573 106.975C87.4573 105.942 86.6709 105.216 85.5307 105.216C84.4373 105.216 83.6416 105.942 83.6416 106.975Z" fill="white"/>
<defs>
<linearGradient id="paint0_linear_2610_2795" x1="62.925" y1="45.0044" x2="74.3496" y2="45.0044" gradientUnits="userSpaceOnUse">
<stop stop-color="#FFAF99"/>
<stop offset="0.96" stop-color="#ED6F5F"/>
</linearGradient>
<linearGradient id="paint1_linear_2610_2795" x1="43.5083" y1="111.342" x2="65.8553" y2="134.694" gradientUnits="userSpaceOnUse">
<stop offset="0.01" stop-color="#FFAF99"/>
<stop offset="1" stop-color="#ED6F5F"/>
</linearGradient>
<linearGradient id="paint2_linear_2610_2795" x1="115.212" y1="68.0618" x2="115.212" y2="87.6111" gradientUnits="userSpaceOnUse">
<stop offset="0.01" stop-color="#FFAF99"/>
<stop offset="1" stop-color="#ED6F5F"/>
</linearGradient>
</defs>
</svg>
