<svg width="24" height="24" viewBox="0 0 24 24" fill="none" xmlns="http://www.w3.org/2000/svg">
<path fill-rule="evenodd" clip-rule="evenodd" d="M11.5605 11.5605C10.9745 12.1465 10.0255 12.1465 9.4395 11.5605C8.8535 10.9745 8.8535 10.0245 9.4395 9.4395C10.0255 8.8535 10.9745 8.8535 11.5605 9.4395C12.1465 10.0245 12.1465 10.9745 11.5605 11.5605ZM21.4682 11.5815L15.0512 5.16448C14.8862 4.99948 14.6692 4.89748 14.4372 4.87648L5.09317 4.00448C4.79617 3.97448 4.50417 4.08148 4.29317 4.29248C4.08217 4.50348 3.97717 4.79648 4.00417 5.09248L4.87617 14.4365C4.89917 14.6685 5.00017 14.8865 5.16517 15.0505L11.5822 21.4685C11.9372 21.8215 12.4022 21.9985 12.8672 21.9985C13.3322 21.9985 13.7972 21.8215 14.1522 21.4675L21.4682 14.1515C21.8112 13.8095 22.0002 13.3525 22.0002 12.8665C22.0002 12.3805 21.8112 11.9245 21.4682 11.5815Z" fill="#231F20"/>
<mask id="mask0_2593_4735" style="mask-type:luminance" maskUnits="userSpaceOnUse" x="4" y="3" width="19" height="19">
<path fill-rule="evenodd" clip-rule="evenodd" d="M11.5605 11.5605C10.9745 12.1465 10.0255 12.1465 9.4395 11.5605C8.8535 10.9745 8.8535 10.0245 9.4395 9.4395C10.0255 8.8535 10.9745 8.8535 11.5605 9.4395C12.1465 10.0245 12.1465 10.9745 11.5605 11.5605ZM21.4682 11.5815L15.0512 5.16448C14.8862 4.99948 14.6692 4.89748 14.4372 4.87648L5.09317 4.00448C4.79617 3.97448 4.50417 4.08148 4.29317 4.29248C4.08217 4.50348 3.97717 4.79648 4.00417 5.09248L4.87617 14.4365C4.89917 14.6685 5.00017 14.8865 5.16517 15.0505L11.5822 21.4685C11.9372 21.8215 12.4022 21.9985 12.8672 21.9985C13.3322 21.9985 13.7972 21.8215 14.1522 21.4675L21.4682 14.1515C21.8112 13.8095 22.0002 13.3525 22.0002 12.8665C22.0002 12.3805 21.8112 11.9245 21.4682 11.5815Z" fill="white"/>
</mask>
<g mask="url(#mask0_2593_4735)">
<rect width="24" height="24" fill="white"/>
</g>
</svg>
