<svg width="42" height="42" viewBox="0 0 42 42" fill="none" xmlns="http://www.w3.org/2000/svg">
<path fill-rule="evenodd" clip-rule="evenodd" d="M11.7862 34.473C13.2212 32.933 15.4087 33.0555 16.6687 34.7355L18.4362 37.098C19.8537 38.9706 22.1462 38.9706 23.5637 37.098L25.3312 34.7355C26.5912 33.0555 28.7787 32.933 30.2137 34.473C33.3287 37.798 35.8662 36.6955 35.8662 32.0405V12.318C35.8837 5.26555 34.2387 3.49805 27.6237 3.49805H14.3937C7.77867 3.49805 6.13367 5.26555 6.13367 12.318V32.023C6.13367 36.6955 8.68867 37.7805 11.7862 34.473ZM28.7201 20.5231C29.292 20.382 29.7241 19.8595 29.7241 19.248C29.7241 18.5305 29.1291 17.9355 28.4116 17.9355H18.7866C18.6778 17.9355 18.5718 17.9492 18.4703 17.9749C17.8984 18.116 17.4663 18.6385 17.4663 19.25C17.4663 19.9675 18.0613 20.5625 18.7788 20.5625H28.4038C28.5126 20.5625 28.6186 20.5488 28.7201 20.5231ZM28.7201 13.5231C29.292 13.382 29.7241 12.8595 29.7241 12.248C29.7241 11.5305 29.1291 10.9355 28.4116 10.9355H18.7866C18.6778 10.9355 18.5718 10.9492 18.4703 10.9749C17.8984 11.116 17.4663 11.6385 17.4663 12.25C17.4663 12.9675 18.0613 13.5625 18.7788 13.5625H28.4038C28.5126 13.5625 28.6186 13.5488 28.7201 13.5231ZM14.044 13.9472C14.8063 13.7585 15.3759 13.0666 15.3759 12.248C15.3759 11.2855 14.5884 10.498 13.6259 10.498C13.4791 10.498 13.3364 10.5164 13.1999 10.5508C12.4376 10.7395 11.868 11.4315 11.868 12.25C11.868 13.2125 12.6555 14 13.618 14C13.7648 14 13.9075 13.9817 14.044 13.9472ZM14.044 20.9472C14.8063 20.7585 15.3759 20.0666 15.3759 19.248C15.3759 18.2855 14.5884 17.498 13.6259 17.498C13.4791 17.498 13.3364 17.5164 13.1999 17.5508C12.4376 17.7395 11.868 18.4315 11.868 19.25C11.868 20.2125 12.6555 21 13.618 21C13.7648 21 13.9075 20.9817 14.044 20.9472Z" fill="white"/>
</svg>
